<?xml version="1.0" encoding="utf-8"?>
<!-- Generator: Adobe Illustrator 16.0.0, SVG Export Plug-In . SVG Version: 6.00 Build 0)  -->
<!DOCTYPE svg PUBLIC "-//W3C//DTD SVG 1.1//EN" "http://www.w3.org/Graphics/SVG/1.1/DTD/svg11.dtd">
<svg version="1.1" id="Layer_1" xmlns="http://www.w3.org/2000/svg" xmlns:xlink="http://www.w3.org/1999/xlink" x="0px" y="0px"
	 width="24px" height="24px" viewBox="0.5 1.5 24 24" enable-background="new 0.5 1.5 24 24" xml:space="preserve">
<title>46835824-89B2-4627-81C0-7E34D1B2E3AB</title>
<desc>Created with sketchtool.</desc>
<g id="Symbols">
	<g id="add">
		<g transform="translate(0.500000, 0.500000)">
			<path id="Shape" fill="#283846" d="M12,23c-2.673,0-5.185-1.041-7.074-2.929c-3.9-3.899-3.9-10.245,0-14.144
				C6.814,4.04,9.327,3,12,3c2.672,0,5.186,1.04,7.075,2.929c3.9,3.899,3.9,10.243,0,14.144C17.186,21.959,14.672,23,12,23z
				 M12,4.199c-2.351,0-4.563,0.917-6.226,2.578c-3.433,3.431-3.433,9.015,0,12.447c1.663,1.662,3.875,2.578,6.226,2.578
				c2.353,0,4.563-0.916,6.226-2.578c3.432-3.433,3.432-9.017,0-12.447C16.562,5.115,14.353,4.199,12,4.199z"/>
			<rect id="Rectangle-path" x="11.321" y="7.502" fill="#283846" width="1.2" height="10.996"/>
			<rect id="Rectangle-path_1_" x="6.499" y="12.321" fill="#283846" width="11" height="1.2"/>
		</g>
	</g>
</g>
</svg>
