<?xml version="1.0" encoding="utf-8"?>
<!-- Generator: Adobe Illustrator 17.0.0, SVG Export Plug-In . SVG Version: 6.00 Build 0)  -->
<!DOCTYPE svg PUBLIC "-//W3C//DTD SVG 1.1//EN" "http://www.w3.org/Graphics/SVG/1.1/DTD/svg11.dtd">
<svg version="1.1" id="Layer_1" xmlns="http://www.w3.org/2000/svg" xmlns:xlink="http://www.w3.org/1999/xlink" x="0px" y="0px"
	 width="24px" height="24px" viewBox="4 -0.5 24 24" enable-background="new 4 -0.5 24 24" xml:space="preserve">
<title>1412F8A8-AC20-438A-82FD-518F99690BDC</title>
<g>
	<path fill="#FFFFFF" d="M25.8,19.745H6.2c-0.937,0-1.7-0.762-1.7-1.7V4.956c0-0.938,0.763-1.701,1.7-1.701h19.6
		c0.938,0,1.7,0.763,1.7,1.701v13.089C27.5,18.983,26.738,19.745,25.8,19.745z M6.2,4.35c-0.333,0-0.605,0.272-0.605,0.606v13.089
		c0,0.334,0.271,0.605,0.605,0.605h19.6c0.334,0,0.605-0.271,0.605-0.605V4.956c0-0.334-0.271-0.606-0.605-0.606H6.2z
		 M24.762,16.621h-1.095V6.344h1.095V16.621z M22.571,16.621h-1.095V6.344h1.095V16.621z M20.381,16.621h-1.095V6.344h1.095V16.621z
		 M18.19,16.621h-1.095V6.344h1.095V16.621z M16.73,16.621h-1.095V6.344h1.095V16.621z M13.81,16.621h-1.095V6.344h1.095V16.621z
		 M12.349,16.621h-1.095V6.344h1.095V16.621z M10.159,16.621H9.063V6.344h1.095V16.621z M7.968,16.621H6.873V6.344h1.095V16.621z"/>
</g>
</svg>
