<?xml version="1.0" encoding="utf-8"?>
<!-- Generator: Adobe Illustrator 17.0.0, SVG Export Plug-In . SVG Version: 6.00 Build 0)  -->
<!DOCTYPE svg PUBLIC "-//W3C//DTD SVG 1.1//EN" "http://www.w3.org/Graphics/SVG/1.1/DTD/svg11.dtd">
<svg version="1.1" id="Layer_1" xmlns="http://www.w3.org/2000/svg" xmlns:xlink="http://www.w3.org/1999/xlink" x="0px" y="0px"
	 width="24px" height="24px" viewBox="-22.703 130.575 24 24" enable-background="new -22.703 130.575 24 24" xml:space="preserve">
<title>ChangeCustomer</title>
<desc>Created with Sketch.</desc>
<g id="Clip-6">
</g>
<g>
	<path fill="#FFFFFF" d="M-5.07,139.236c0-3.131-2.547-5.679-5.679-5.679s-5.679,2.547-5.679,5.679c0,2.006,1.048,3.768,2.623,4.779
		c-4.094,0.929-7.073,3.702-7.073,6.968c0,0.337,0.273,0.61,0.61,0.61c0.337,0,0.61-0.273,0.61-0.61
		c0-3.326,3.914-6.033,8.745-6.076c0.055,0.002,0.109,0.008,0.164,0.008C-7.617,144.915-5.07,142.367-5.07,139.236z
		 M-15.207,139.236c0-2.458,2.001-4.459,4.459-4.459s4.459,2.001,4.459,4.459c0,2.458-2.001,4.459-4.459,4.459
		c-0.003,0-0.006,0-0.009,0v-0.012c-0.001,0-0.002,0-0.003,0c-0.007,0-0.011,0.002-0.018,0.002c-0.008,0-0.011-0.002-0.02-0.002
		c-0.038,0-0.075,0.004-0.113,0.004C-13.293,143.6-15.207,141.639-15.207,139.236z"/>
	<path fill="#FFFFFF" d="M-0.575,148.814c0.062-0.149,0.062-0.317,0-0.466c-0.031-0.075-0.075-0.142-0.132-0.198l-2.401-2.402
		c-0.238-0.238-0.624-0.238-0.863,0c-0.238,0.238-0.238,0.624,0,0.863l1.36,1.361h-4.948c-0.337,0-0.61,0.273-0.61,0.61
		c0,0.337,0.273,0.61,0.61,0.61h4.948l-1.36,1.361c-0.238,0.238-0.238,0.624,0,0.863c0.119,0.119,0.275,0.179,0.431,0.179
		c0.156,0,0.312-0.06,0.431-0.179l2.401-2.402c0.001-0.001,0.001-0.002,0.002-0.003C-0.65,148.953-0.606,148.887-0.575,148.814z"/>
</g>
</svg>
