<?xml version="1.0" encoding="utf-8"?>
<!-- Generator: Adobe Illustrator 17.0.0, SVG Export Plug-In . SVG Version: 6.00 Build 0)  -->
<!DOCTYPE svg PUBLIC "-//W3C//DTD SVG 1.1//EN" "http://www.w3.org/Graphics/SVG/1.1/DTD/svg11.dtd">
<svg version="1.1" id="Layer_1" xmlns="http://www.w3.org/2000/svg" xmlns:xlink="http://www.w3.org/1999/xlink" x="0px" y="0px"
	 width="24px" height="24px" viewBox="0 0 24 24" enable-background="new 0 0 24 24" xml:space="preserve">
<g>
	<g>
		<path fill="#2289C7" d="M0,9v4v3.903C0,17.764,1.109,18,1.97,18h19.883C22.714,18,23,17.764,23,16.903V13v-1v-2V9H0z M16,16h-4v-1
			h4V16z M20,16h-2v-1h2V16z"/>
		<path fill="#2289C7" d="M21.854,4H1.97C1.109,4,0,4.439,0,5.3V6h23V5.3C23,4.439,22.714,4,21.854,4z"/>
		<rect y="6" fill="#3F4D50" width="23" height="3"/>
		<rect x="12" y="15" fill="#FFFFFF" width="4" height="1"/>
		<rect x="18" y="15" fill="#FFFFFF" width="2" height="1"/>
		<rect x="1" y="10" fill="#F1F7F7" width="12" height="2"/>
		<rect x="15" y="10" fill="#F1F7F7" width="7" height="2"/>
	</g>
	<g>
		<path fill="#D83A33" d="M4.374,14.86c0-0.669,0.32-1.257,0.809-1.639c-0.354-0.276-0.794-0.448-1.277-0.448
			c-1.153,0-2.087,0.934-2.087,2.087c0,1.152,0.934,2.087,2.087,2.087c0.484,0,0.923-0.171,1.277-0.448
			C4.694,16.117,4.374,15.528,4.374,14.86z"/>
		<path fill="#F8D173" d="M6.461,12.773c-0.484,0-0.923,0.171-1.277,0.448c0.489,0.382,0.809,0.97,0.809,1.639
			c0,0.669-0.32,1.257-0.809,1.639c0.354,0.276,0.794,0.448,1.277,0.448c1.153,0,2.087-0.934,2.087-2.087
			C8.547,13.707,7.613,12.773,6.461,12.773z"/>
		<path fill="#F8D173" d="M5.992,14.86c0-0.669-0.32-1.257-0.809-1.639c-0.489,0.382-0.809,0.97-0.809,1.639
			c0,0.669,0.32,1.257,0.809,1.639C5.672,16.117,5.992,15.528,5.992,14.86z"/>
	</g>
</g>
</svg>
