<?xml version="1.0" encoding="utf-8"?>
<!-- Generator: Adobe Illustrator 17.0.0, SVG Export Plug-In . SVG Version: 6.00 Build 0)  -->
<!DOCTYPE svg PUBLIC "-//W3C//DTD SVG 1.1//EN" "http://www.w3.org/Graphics/SVG/1.1/DTD/svg11.dtd">
<svg version="1.1" id="Layer_1" xmlns="http://www.w3.org/2000/svg" xmlns:xlink="http://www.w3.org/1999/xlink" x="0px" y="0px"
	 width="24px" height="24px" viewBox="0 0 24 24" enable-background="new 0 0 24 24" xml:space="preserve">
<g id="Page-1">
	<g id="iPad-Checkout" transform="translate(-324.000000, -459.000000)">
		<g id="Custome-Sale" transform="translate(324.000000, 459.000000)">
			<path fill="#747A75" d="M15.153,20.388c0-0.883,0.717-1.6,1.6-1.6c0.883,0,1.6,0.717,1.6,1.6s-0.717,1.6-1.6,1.6
				C15.868,21.988,15.153,21.271,15.153,20.388L15.153,20.388z M10.788,20.388c0-0.883,0.717-1.6,1.6-1.6s1.6,0.717,1.6,1.6
				s-0.717,1.6-1.6,1.6S10.788,21.271,10.788,20.388L10.788,20.388z M6.424,20.388c0-0.883,0.717-1.6,1.6-1.6s1.6,0.717,1.6,1.6
				s-0.717,1.6-1.6,1.6S6.424,21.271,6.424,20.388L6.424,20.388z M15.153,16.024c0-0.883,0.717-1.6,1.6-1.6
				c0.883,0,1.6,0.717,1.6,1.6c0,0.883-0.717,1.6-1.6,1.6C15.868,17.624,15.153,16.908,15.153,16.024L15.153,16.024z M10.788,16.024
				c0-0.883,0.717-1.6,1.6-1.6s1.6,0.717,1.6,1.6c0,0.883-0.717,1.6-1.6,1.6S10.788,16.908,10.788,16.024L10.788,16.024z
				 M6.424,16.024c0-0.883,0.717-1.6,1.6-1.6s1.6,0.717,1.6,1.6c0,0.883-0.717,1.6-1.6,1.6S6.424,16.908,6.424,16.024L6.424,16.024z
				 M15.153,11.66c0-0.883,0.717-1.6,1.6-1.6c0.883,0,1.6,0.717,1.6,1.6s-0.717,1.6-1.6,1.6
				C15.868,13.261,15.153,12.544,15.153,11.66L15.153,11.66z M10.788,11.66c0-0.883,0.717-1.6,1.6-1.6s1.6,0.717,1.6,1.6
				s-0.717,1.6-1.6,1.6C11.505,13.261,10.788,12.544,10.788,11.66L10.788,11.66z M6.424,11.66c0-0.883,0.717-1.6,1.6-1.6
				s1.6,0.717,1.6,1.6s-0.717,1.6-1.6,1.6S6.424,12.544,6.424,11.66L6.424,11.66z M7.491,2.788h9.018
				c0.591,0,1.067,0.475,1.067,1.067v3.2c0,0.592-0.475,1.067-1.067,1.067H7.491c-0.592,0-1.067-0.475-1.067-1.067v-3.2
				C6.424,3.263,6.899,2.788,7.491,2.788L7.491,2.788z M4,21.697c0,1.071,0.868,1.939,1.939,1.939h12.121
				c1.071,0,1.939-0.868,1.939-1.939V2.303c0-1.071-0.868-1.939-1.939-1.939H5.939C4.868,0.364,4,1.232,4,2.303V21.697z"/>
		</g>
	</g>
</g>
</svg>
