<?xml version="1.0" encoding="utf-8"?>
<!-- Generator: Adobe Illustrator 16.0.0, SVG Export Plug-In . SVG Version: 6.00 Build 0)  -->
<!DOCTYPE svg PUBLIC "-//W3C//DTD SVG 1.1//EN" "http://www.w3.org/Graphics/SVG/1.1/DTD/svg11.dtd">
<svg version="1.1" id="Layer_1" xmlns="http://www.w3.org/2000/svg" xmlns:xlink="http://www.w3.org/1999/xlink" x="0px" y="0px"
	 width="24px" height="24px" viewBox="-0.5 -1 24 24" enable-background="new -0.5 -1 24 24" xml:space="preserve">
<title>BD1A7985-7845-40DC-9B31-7D05EC3D1BA8</title>
<desc>Created with sketchtool.</desc>
<g id="delete" transform="translate(82.613281, 207.000000)">
	<g id="Group-3" transform="translate(1.000000, 0.000000)">
		<path fill="#273746" d="M-72.113-186.25c-5.376,0-9.75-4.374-9.75-9.75s4.374-9.75,9.75-9.75s9.75,4.374,9.75,9.75
			S-66.737-186.25-72.113-186.25z M-72.113-204.25c-4.549,0-8.25,3.701-8.25,8.25s3.701,8.25,8.25,8.25s8.25-3.701,8.25-8.25
			S-67.564-204.25-72.113-204.25z"/>
		
			<rect x="-77.846" y="-196.75" transform="matrix(0.7071 0.7071 -0.7071 0.7071 -159.7142 -6.4154)" fill="#273746" width="11.465" height="1.5"/>
		
			<rect x="-72.863" y="-201.732" transform="matrix(0.7071 0.7071 -0.7071 0.7071 -159.7142 -6.4154)" fill="#273746" width="1.5" height="11.465"/>
	</g>
</g>
</svg>
