<?xml version="1.0" encoding="utf-8"?>
<!-- Generator: Adobe Illustrator 17.0.0, SVG Export Plug-In . SVG Version: 6.00 Build 0)  -->
<!DOCTYPE svg PUBLIC "-//W3C//DTD SVG 1.1//EN" "http://www.w3.org/Graphics/SVG/1.1/DTD/svg11.dtd">
<svg version="1.1" id="Layer_1" xmlns="http://www.w3.org/2000/svg" xmlns:xlink="http://www.w3.org/1999/xlink" x="0px" y="0px"
	 width="24px" height="24px" viewBox="0.5 -0.5 24 24" enable-background="new 0.5 -0.5 24 24" xml:space="preserve">
<title>DeleteDiscount</title>
<desc>Created with Sketch.</desc>
<g id="Page-1_1_">
	<g id="Checkout-2" transform="translate(-425.000000, -461.000000)">
		<g id="DeleteDiscount" transform="translate(425.000000, 461.000000)">
			<g id="Page-1">
				<path id="Fill-1" fill="#747A75" d="M13.616,15.044L13.616,15.044L13.616,15.044L13.616,15.044z M13.13,13.596v-0.56h0.002
					l-0.002-0.482c-0.002-0.184-0.005-0.369,0.005-0.553c0.013-0.301,0.161-0.443,0.477-0.446c0.426,0,0.482,0.247,0.488,0.433
					c0.017,0.552,0.017,1.112,0,1.664c-0.009,0.29-0.173,0.437-0.498,0.437H13.6C13.299,14.083,13.151,13.938,13.13,13.596
					L13.13,13.596z M13.729,10.36c-0.904-0.065-1.639,0.479-1.803,1.302c-0.079,0.396-0.065,1.772-0.046,2.058
					c0.061,0.91,0.77,1.549,1.725,1.556h0.012c0.977,0,1.689-0.643,1.735-1.563c0.03-0.601,0.03-1.208-0.001-1.802
					C15.307,11.06,14.64,10.423,13.729,10.36L13.729,10.36z"/>
				<path id="Fill-3" fill="#747A75" d="M8.864,10.821L8.864,10.821v0.002V10.821z M8.866,7.099v0.226
					c0.3,0,0.456,0.142,0.476,0.435C9.359,8.025,9.36,9.126,9.346,9.391C9.335,9.612,9.241,9.876,8.852,9.876
					C8.543,9.873,8.383,9.707,8.377,9.383c-0.009-0.534-0.009-1.067,0.001-1.6c0.006-0.306,0.147-0.447,0.458-0.457L8.866,7.099
					L8.866,7.099L8.866,7.099z M8.864,11.054c0.952,0,1.68-0.656,1.729-1.559c0.034-0.614,0.034-1.221-0.001-1.804
					c-0.055-0.928-0.76-1.551-1.781-1.551C7.869,6.149,7.173,6.803,7.12,7.728C7.109,7.925,7.112,8.123,7.115,8.319l0.003,0.262
					h0.005c-0.02,0.133-0.03,0.384-0.003,0.878c0.05,0.926,0.757,1.582,1.717,1.595H8.864z"/>
				<path id="Fill-5" fill="#747A75" d="M8.917,15.073L8.917,15.073l0.001,0.01L8.917,15.073z M14.507,6.184l-0.305-0.055
					c-0.218-0.039-0.38-0.063-0.52-0.063c-0.428,0-0.596,0.237-0.822,0.627c-1.54,2.661-4.753,8.271-4.753,8.271l-0.204,0.356
					l0.411-0.01c0.001,0.001,0.38-0.011,0.539,0.001l0.066,0.003c0.348,0,0.498-0.259,0.547-0.344l0.082-0.141
					c2.861-4.958,4.776-8.279,4.821-8.368L14.507,6.184z"/>
				<path id="Fill-7" fill="#747A75" d="M15.423,19.525c-0.208-0.044-0.415-0.088-0.623-0.131c-0.331-0.068-0.661-0.136-0.99-0.208
					c-0.26-0.056-0.445-0.007-0.64,0.154c-0.322,0.267-0.649,0.523-0.978,0.78c-0.209,0.163-0.418,0.326-0.624,0.491
					c-0.037,0.03-0.054,0.034-0.054,0.034c-0.002,0-0.019-0.005-0.055-0.034c-0.211-0.168-0.423-0.334-0.636-0.501
					c-0.331-0.26-0.661-0.518-0.986-0.786c-0.133-0.109-0.273-0.163-0.426-0.163c-0.054,0-0.11,0.006-0.171,0.02l-0.694,0.142
					c-0.424,0.086-0.848,0.172-1.27,0.27c-0.038,0.008-0.07,0.013-0.095,0.013c-0.034,0-0.061,0-0.111-0.125
					c-0.246-0.609-0.515-1.239-0.8-1.873c-0.071-0.158-0.241-0.306-0.412-0.36c-0.653-0.21-1.311-0.403-1.969-0.594
					c-0.063-0.018-0.078-0.034-0.076-0.073l0.046-0.572c0.04-0.49,0.079-0.98,0.128-1.469c0.029-0.277-0.054-0.489-0.267-0.686
					c-0.255-0.236-0.505-0.477-0.755-0.717c-0.226-0.217-0.451-0.433-0.68-0.647c-0.052-0.049-0.058-0.072-0.058-0.072
					s0-0.022,0.039-0.082c0.378-0.583,0.748-1.171,1.107-1.767c0.091-0.152,0.118-0.376,0.067-0.545
					C3.236,9.357,3.017,8.698,2.796,8.068C2.755,7.953,2.755,7.936,2.879,7.866c0.285-0.157,0.566-0.32,0.848-0.482
					c0.297-0.172,0.592-0.344,0.892-0.508C4.835,6.757,4.95,6.587,4.98,6.34c0.078-0.628,0.164-1.256,0.249-1.882
					c0.008-0.06,0.028-0.201,0.025-0.214c0.032-0.015,0.166-0.019,0.23-0.021l0.601-0.024C6.518,4.18,6.951,4.163,7.384,4.155
					C7.641,4.151,7.828,4.05,7.991,3.828c0.19-0.26,0.385-0.516,0.579-0.773c0.205-0.27,0.409-0.539,0.609-0.811
					c0.024-0.033,0.067-0.088,0.096-0.088c0.014,0,0.047,0.005,0.113,0.038c0.557,0.28,1.147,0.561,1.861,0.885
					c0.192,0.089,0.334,0.09,0.525,0.002c0.496-0.224,0.987-0.46,1.476-0.697l0.316-0.152c0.067-0.032,0.181-0.087,0.181-0.099
					c0.028,0.018,0.103,0.118,0.144,0.172l0.268,0.356c0.309,0.411,0.617,0.82,0.936,1.225c0.113,0.14,0.313,0.246,0.488,0.255
					c0.733,0.043,1.399,0.068,2.036,0.077c0.139,0.002,0.151,0.018,0.168,0.141c0.045,0.306,0.095,0.611,0.143,0.916
					c0.057,0.354,0.114,0.707,0.165,1.062c0.037,0.255,0.153,0.423,0.377,0.546c0.314,0.172,0.624,0.351,0.933,0.531
					c0.268,0.154,0.536,0.309,0.807,0.46c0.105,0.059,0.11,0.071,0.069,0.185c-0.104,0.301-0.204,0.603-0.304,0.905
					c-0.109,0.331-0.219,0.662-0.335,0.991c-0.087,0.244-0.059,0.455,0.091,0.683c0.285,0.436,0.562,0.877,0.839,1.317l0.195,0.309
					c0.025,0.04,0.101,0.133,0.098,0.135c-0.014,0.028-0.098,0.11-0.13,0.14l-0.271,0.261c-0.11,0.106-0.223,0.21-0.333,0.315
					c0.464,0.096,0.892,0.281,1.289,0.511c0.086-0.082,0.172-0.165,0.258-0.249c0.519-0.507,0.591-1.124,0.201-1.74l-0.089-0.14
					c-0.266-0.42-0.533-0.842-0.808-1.258c-0.054-0.08-0.059-0.12-0.029-0.205c0.191-0.536,0.37-1.077,0.548-1.62
					c0.215-0.661-0.006-1.244-0.61-1.599l-0.267-0.159c-0.394-0.234-0.79-0.467-1.191-0.691c-0.096-0.054-0.127-0.1-0.144-0.212
					c-0.081-0.565-0.174-1.131-0.278-1.692c-0.126-0.673-0.593-1.072-1.285-1.093l-0.74-0.026c-0.306-0.011-0.612-0.022-0.917-0.03
					c-0.125-0.003-0.183-0.032-0.247-0.126c-0.327-0.468-0.673-0.925-1.02-1.38c-0.408-0.535-1.01-0.682-1.62-0.393l-0.6,0.287
					c-0.334,0.161-0.667,0.322-1.004,0.476c-0.007,0.005-0.033,0.011-0.122,0.003c-0.337-0.152-0.671-0.313-1.003-0.474L9.918,1.05
					C9.222,0.721,8.626,0.872,8.162,1.489L7.955,1.764C7.7,2.103,7.444,2.442,7.203,2.791C7.14,2.882,7.084,2.909,6.956,2.913
					c-0.301,0.008-0.601,0.019-0.903,0.03l-0.73,0.026c-0.652,0.019-1.13,0.419-1.247,1.042c-0.11,0.587-0.204,1.175-0.292,1.765
					C3.77,5.871,3.745,5.907,3.664,5.953C3.302,6.158,2.944,6.37,2.585,6.582L2.209,6.804c-0.637,0.374-0.853,0.94-0.625,1.633
					L1.619,8.54c0.164,0.5,0.329,1,0.504,1.495c0.031,0.085,0.026,0.126-0.028,0.205c-0.234,0.353-0.461,0.71-0.687,1.069
					l-0.21,0.33c-0.396,0.623-0.321,1.246,0.214,1.757l0.348,0.334c0.283,0.273,0.566,0.545,0.854,0.812
					c0.078,0.073,0.089,0.115,0.081,0.195c-0.042,0.432-0.078,0.866-0.113,1.313L2.54,16.587c-0.018,0.611,0.356,1.105,0.979,1.29
					c0.53,0.158,1.062,0.315,1.595,0.46c0.087,0.023,0.12,0.054,0.156,0.14c0.167,0.408,0.343,0.813,0.518,1.218l0.124,0.287
					c0.285,0.658,0.871,0.957,1.58,0.813l0.266-0.056c0.466-0.096,0.932-0.194,1.422-0.28c0.051,0,0.103,0.02,0.123,0.034
					c0.334,0.261,0.662,0.529,0.99,0.798l0.333,0.273c0.299,0.245,0.59,0.363,0.889,0.363c0.297,0,0.584-0.116,0.88-0.358
					l0.373-0.307c0.314-0.259,0.628-0.516,0.949-0.767c0.024-0.018,0.077-0.031,0.143-0.037c0.488,0.087,0.975,0.188,1.46,0.291
					l0.206,0.043c0.323,0.067,0.613,0.03,0.867-0.078C16.002,20.379,15.675,19.979,15.423,19.525"/>
				<path id="Fill-9" fill="#F7422D" d="M21.522,18.742c0.214,0.214,0.214,0.561,0,0.774c-0.107,0.107-0.247,0.161-0.387,0.161
					c-0.14,0-0.28-0.054-0.387-0.161l-1.37-1.37l-1.371,1.37c-0.106,0.107-0.247,0.161-0.387,0.161c-0.14,0-0.28-0.054-0.387-0.161
					c-0.213-0.213-0.213-0.56,0-0.774l1.37-1.37l-1.37-1.37c-0.213-0.214-0.213-0.561,0-0.775c0.214-0.213,0.561-0.213,0.774,0
					l1.371,1.371l1.37-1.371c0.213-0.213,0.56-0.213,0.774,0c0.214,0.214,0.214,0.561,0,0.775l-1.37,1.37L21.522,18.742z
					 M19.378,12.8c-2.525,0-4.571,2.046-4.571,4.571c0,2.524,2.046,4.57,4.571,4.57c2.524,0,4.57-2.046,4.57-4.57
					C23.948,14.847,21.902,12.8,19.378,12.8L19.378,12.8z"/>
			</g>
		</g>
	</g>
</g>
</svg>
