<?xml version="1.0" encoding="utf-8"?>
<!-- Generator: Adobe Illustrator 17.0.0, SVG Export Plug-In . SVG Version: 6.00 Build 0)  -->
<!DOCTYPE svg PUBLIC "-//W3C//DTD SVG 1.1//EN" "http://www.w3.org/Graphics/SVG/1.1/DTD/svg11.dtd">
<svg version="1.1" id="Layer_1" xmlns="http://www.w3.org/2000/svg" xmlns:xlink="http://www.w3.org/1999/xlink" x="0px" y="0px"
	 width="24px" height="24px" viewBox="0 0 24 24" enable-background="new 0 0 24 24" xml:space="preserve">
<g id="Page-1">
	<g id="iPad-Checkout" transform="translate(-319.000000, -512.000000)">
		<g id="Discount" transform="translate(319.000000, 512.000000)">
			<g transform="translate(0.500000, 0.000000)">
				<path id="Fill-1" fill="#747A75" d="M16.94,14.46c0.021,1.195-0.714,2.2-1.792,2.465c-1.465,0.36-2.881-0.665-2.98-2.149
					c-0.046-0.687,0.071-1.332,0.508-1.884c0.639-0.808,1.506-1.082,2.491-0.849c0.954,0.226,1.504,0.893,1.728,1.825
					c0.02,0.081,0.037,0.165,0.043,0.248C16.946,14.23,16.94,14.345,16.94,14.46 M8.968,16.576c-0.16,0.214-0.343,0.372-0.628,0.38
					c-0.5,0.014-0.838-0.453-0.65-0.912c0.048-0.119,0.126-0.228,0.203-0.332c1.279-1.725,2.557-3.45,3.841-5.17
					c0.791-1.06,1.59-2.115,2.389-3.169c0.342-0.451,0.977-0.433,1.213,0.034c0.047,0.093,0.06,0.202,0.102,0.351
					C15.373,7.89,15.32,8.059,15.22,8.196c-0.488,0.673-0.987,1.338-1.485,2.003C12.147,12.325,10.555,14.449,8.968,16.576
					 M6.952,11.471c-0.833-0.663-1.057-1.567-0.834-2.565c0.21-0.942,0.797-1.578,1.767-1.819c1.598-0.397,3.002,0.744,3.001,2.662
					c-0.039,0.76-0.437,1.559-1.37,1.995C8.624,12.162,7.73,12.091,6.952,11.471 M23.193,13.607c-0.7-0.74-1.396-1.483-2.101-2.219
					c-0.115-0.12-0.125-0.211-0.051-0.355c0.499-0.968,0.991-1.94,1.483-2.911c0.245-0.484,0.102-0.78-0.436-0.914
					c-0.986-0.246-1.971-0.497-2.958-0.74c-0.139-0.034-0.209-0.091-0.226-0.239c-0.124-1.11-0.259-2.22-0.381-3.33
					c-0.054-0.493-0.336-0.687-0.819-0.529c-0.958,0.314-1.916,0.626-2.87,0.951c-0.165,0.056-0.259,0.04-0.371-0.097
					c-0.703-0.858-1.416-1.709-2.125-2.563c-0.342-0.411-0.665-0.411-1.01,0.008C10.696,1.437,10.06,2.201,9.44,2.978
					C9.31,3.14,9.202,3.158,9.013,3.096C7.938,2.741,6.859,2.4,5.779,2.058C5.374,1.931,5.08,2.116,5.032,2.527
					C4.912,3.561,4.793,4.595,4.684,5.63C4.668,5.79,4.602,5.844,4.452,5.882c-1.091,0.276-2.179,0.56-3.267,0.845
					c-0.518,0.136-0.648,0.42-0.41,0.889c0.482,0.95,0.964,1.899,1.45,2.857c-0.05,0.055-0.101,0.113-0.152,0.168
					c-0.758,0.813-1.517,1.624-2.274,2.437c-0.34,0.365-0.293,0.689,0.134,0.939c0.875,0.513,1.747,1.031,2.629,1.533
					c0.182,0.104,0.216,0.213,0.181,0.403c-0.202,1.091-0.394,2.184-0.587,3.276c-0.076,0.427,0.168,0.695,0.614,0.679
					c1.026-0.036,2.053-0.068,3.078-0.114c0.191-0.009,0.286,0.037,0.363,0.22c0.428,1.026,0.872,2.045,1.311,3.066
					c0.188,0.437,0.513,0.528,0.914,0.26c0.174-0.116,0.346-0.234,0.519-0.352c0.735-0.5,1.47-1.001,2.208-1.503
					c0.074,0.048,0.139,0.09,0.203,0.132c0.931,0.626,1.862,1.253,2.794,1.877c0.403,0.27,0.73,0.178,0.91-0.262
					c0.189-0.459,0.358-0.926,0.546-1.385c0.197-0.483,0.411-0.958,0.603-1.442c0.062-0.156,0.143-0.2,0.31-0.194
					c1.143,0.04,2.286,0.069,3.43,0.101c0.436,0.012,0.677-0.255,0.602-0.665c-0.185-1.016-0.363-2.034-0.56-3.048
					c-0.034-0.174,0.019-0.242,0.157-0.323c0.969-0.567,1.933-1.142,2.898-1.715C23.498,14.299,23.543,13.977,23.193,13.607"/>
				<path id="Fill-4" fill="#747A75" d="M9.068,10.448c0.253-0.252,0.296-0.558,0.31-0.882C9.389,9.244,9.32,8.942,9.131,8.675
					C8.751,8.14,8.019,8.178,7.722,8.761c-0.243,0.477-0.262,0.99-0.004,1.458C8.033,10.792,8.683,10.833,9.068,10.448"/>
				<path id="Fill-6" fill="#747A75" d="M13.892,13.635c-0.14,0.235-0.189,0.522-0.279,0.786c0.019,0.006,0.038,0.012,0.058,0.018
					c-0.015,0.348,0.066,0.67,0.287,0.947c0.349,0.435,0.968,0.419,1.296-0.029c0.347-0.476,0.319-1.339-0.059-1.792
					C14.831,13.129,14.18,13.15,13.892,13.635"/>
			</g>
		</g>
	</g>
</g>
</svg>
