<?xml version="1.0" encoding="utf-8"?>
<!-- Generator: Adobe Illustrator 17.0.0, SVG Export Plug-In . SVG Version: 6.00 Build 0)  -->
<!DOCTYPE svg PUBLIC "-//W3C//DTD SVG 1.1//EN" "http://www.w3.org/Graphics/SVG/1.1/DTD/svg11.dtd">
<svg version="1.1" id="Layer_1" xmlns="http://www.w3.org/2000/svg" xmlns:xlink="http://www.w3.org/1999/xlink" x="0px" y="0px"
	 width="24px" height="24px" viewBox="0.5 -1 24 24" enable-background="new 0.5 -1 24 24" xml:space="preserve">
<title>editCustomer</title>
<desc>Created with Sketch.</desc>
<g id="Clip-6">
</g>
<path fill="#FFFFFF" d="M15.521,11.989c1.659-1.013,2.773-2.836,2.773-4.917c0-3.178-2.585-5.764-5.764-5.764
	S6.767,3.893,6.767,7.072c0,2.076,1.107,3.894,2.758,4.908c-4.204,0.921-7.275,3.751-7.275,7.091c0,0.342,0.277,0.619,0.619,0.619
	s0.619-0.277,0.619-0.619c0-3.403,4.035-6.171,8.993-6.171c0.008,0,0.012-0.002,0.02-0.002c0.007,0,0.012,0.002,0.018,0.002
	c4.959,0,8.993,2.769,8.993,6.171c0,0.342,0.277,0.619,0.619,0.619c0.342,0,0.619-0.277,0.619-0.619
	C22.75,15.744,19.702,12.921,15.521,11.989z M8.005,7.072c0-2.495,2.031-4.525,4.525-4.525s4.525,2.031,4.525,4.525
	s-2.031,4.525-4.525,4.525C10.036,11.598,8.005,9.567,8.005,7.072z"/>
</svg>
