<?xml version="1.0" encoding="utf-8"?>
<!-- Generator: Adobe Illustrator 17.0.0, SVG Export Plug-In . SVG Version: 6.00 Build 0)  -->
<!DOCTYPE svg PUBLIC "-//W3C//DTD SVG 1.1//EN" "http://www.w3.org/Graphics/SVG/1.1/DTD/svg11.dtd">
<svg version="1.1" id="Layer_1" xmlns="http://www.w3.org/2000/svg" xmlns:xlink="http://www.w3.org/1999/xlink" x="0px" y="0px"
	 width="24px" height="24px" viewBox="0 0 24 24" enable-background="new 0 0 24 24" xml:space="preserve">
<defs>
	<filter id="Adobe_OpacityMaskFilter" filterUnits="userSpaceOnUse" x="6.129" y="0.5" width="11.742" height="23.001">
		<feColorMatrix  type="matrix" values="1 0 0 0 0  0 1 0 0 0  0 0 1 0 0  0 0 0 1 0"/>
	</filter>
</defs>
<mask maskUnits="userSpaceOnUse" x="6.129" y="0.5" width="11.742" height="23.001" id="b">
	<g filter="url(#Adobe_OpacityMaskFilter)">
		<path id="a" fill="#FFFFFF" d="M17.871,23.5H6.129v-23h11.742V23.5z"/>
	</g>
</mask>
<path mask="url(#b)" fill="#0A9A50" d="M15.089,11.034c-0.844-0.451-1.757-0.769-2.62-1.185c-0.604-0.291-1.227-0.58-1.749-0.986
	c-0.954-0.747-0.746-2.1,0.368-2.579c0.345-0.148,0.738-0.225,1.113-0.25c1.318-0.088,2.56,0.222,3.729,0.831
	c0.307,0.16,0.471,0.109,0.565-0.243c0.192-0.719,0.403-1.433,0.625-2.144c0.092-0.296,0.015-0.474-0.272-0.578
	c-0.397-0.146-0.783-0.344-1.19-0.447c-0.727-0.185-1.467-0.313-2.246-0.477c0-0.658-0.01-1.348,0.005-2.034
	c0.005-0.319-0.114-0.448-0.437-0.442c-0.617,0.015-1.235,0.016-1.853,0c-0.328-0.008-0.431,0.132-0.422,0.448
	c0.019,0.622-0.006,1.244,0.012,1.865c0.009,0.292-0.062,0.425-0.372,0.507c-0.5,0.134-0.994,0.32-1.456,0.554
	C5.811,5.431,5.238,9.833,8.387,11.9c0.377,0.248,0.764,0.494,1.173,0.68c0.837,0.379,1.703,0.689,2.535,1.08
	c0.467,0.219,0.938,0.479,1.322,0.816c0.991,0.871,0.81,2.293-0.358,2.895c-0.366,0.186-0.764,0.303-1.171,0.348
	c-1.607,0.166-3.097-0.254-4.502-1.02c-0.401-0.221-0.472-0.193-0.599,0.25c-0.207,0.729-0.393,1.465-0.619,2.188
	c-0.086,0.281-0.037,0.459,0.226,0.564c0.634,0.256,1.257,0.557,1.912,0.738c0.72,0.199,1.469,0.285,2.243,0.43
	c0,0.727,0.011,1.473-0.004,2.215c-0.006,0.311,0.117,0.42,0.412,0.414c0.629-0.01,1.262-0.01,1.893,0.002
	c0.32,0.008,0.436-0.127,0.429-0.445c-0.016-0.801-0.006-1.602-0.006-2.414c0.32-0.094,0.624-0.172,0.922-0.27
	c2.733-0.895,4.153-3.354,3.532-6.123C17.387,12.73,16.395,11.73,15.089,11.034"/>
</svg>
