<?xml version="1.0" encoding="utf-8"?>
<!-- Generator: Adobe Illustrator 16.0.0, SVG Export Plug-In . SVG Version: 6.00 Build 0)  -->
<!DOCTYPE svg PUBLIC "-//W3C//DTD SVG 1.1//EN" "http://www.w3.org/Graphics/SVG/1.1/DTD/svg11.dtd">
<svg version="1.1" id="Layer_1" xmlns="http://www.w3.org/2000/svg" xmlns:xlink="http://www.w3.org/1999/xlink" x="0px" y="0px"
	 width="24px" height="24px" viewBox="3 7 24 24" enable-background="new 3 7 24 24" xml:space="preserve">
<title>3CD470E2-D124-4261-B8B4-FF90ACEAF646</title>
<g>
	<path fill="#3C813D" d="M11.234,15.753l5.924,4.849l6.749-6.84l-5.21-5.307L11.234,15.753z"/>
	<path fill="#3C813D" d="M21.927,13.688c0.04-0.113,0.094-0.218,0.157-0.312l-2.883-2.936c-0.457,0.215-0.994,0.164-1.404-0.133
		l-5.592,5.468l4.956,4.057l4.89-4.958C21.832,14.518,21.786,14.081,21.927,13.688"/>
	<path fill="#3A623F" d="M12.44,15.764l4.709,3.854l4.707-4.771c-0.234-0.458-0.223-1.002,0.03-1.45l-2.723-2.771
		c-0.443,0.168-0.939,0.124-1.347-0.118L12.44,15.764z M17.172,20.043l-5.202-4.259l5.812-5.683l0.107,0.078
		c0.362,0.263,0.84,0.308,1.246,0.118l0.101-0.047l3.051,3.105l-0.073,0.106c-0.271,0.398-0.282,0.919-0.028,1.329l0.063,0.104
		L17.172,20.043z"/>
	<path fill="#86C440" d="M19.301,13.8c-0.116,0.281-0.438,0.414-0.719,0.298c-0.261-0.108-0.397-0.395-0.317-0.665
		c0.116-0.28,0.438-0.414,0.72-0.297C19.244,13.243,19.381,13.53,19.301,13.8"/>
	<path fill="#3C813D" d="M18.783,13.224c-0.217,0-0.394,0.177-0.393,0.394s0.176,0.393,0.393,0.392c0.218,0,0.393-0.176,0.393-0.393
		c0-0.166-0.104-0.314-0.262-0.37C18.872,13.231,18.827,13.225,18.783,13.224 M18.783,14.322c-0.392-0.001-0.708-0.319-0.706-0.71
		c0-0.079,0.013-0.157,0.039-0.231c0.132-0.368,0.535-0.56,0.903-0.43c0.367,0.131,0.559,0.534,0.428,0.901
		C19.348,14.135,19.081,14.322,18.783,14.322 M17.997,17.277c-0.425,1.192-1.736,1.815-2.93,1.392
		c-1.192-0.42-1.817-1.727-1.397-2.919c0.001-0.001,0.002-0.003,0.002-0.004c0.426-1.192,1.737-1.815,2.931-1.392
		c1.191,0.42,1.816,1.727,1.396,2.918C17.998,17.274,17.998,17.275,17.997,17.277"/>
	<path fill="#FEFEFE" d="M14.491,14.742l0.377,0.38c0.249-0.2,0.499-0.328,0.752-0.383l0.216,0.682
		c-0.236,0.029-0.419,0.109-0.549,0.237c-0.072,0.065-0.121,0.152-0.14,0.247c-0.015,0.086,0.001,0.152,0.046,0.198
		c0.043,0.042,0.102,0.062,0.179,0.061s0.159-0.023,0.247-0.064l0.249-0.12c0.277-0.135,0.514-0.195,0.708-0.183
		c0.195,0.012,0.375,0.102,0.539,0.267c0.1,0.101,0.176,0.201,0.229,0.301c0.054,0.101,0.084,0.206,0.093,0.319
		c0.008,0.112-0.009,0.232-0.048,0.362c-0.048,0.15-0.109,0.294-0.185,0.432l0.386,0.39l-0.29,0.285l-0.37-0.373
		c-0.07,0.068-0.147,0.129-0.23,0.181c-0.09,0.058-0.183,0.108-0.279,0.152c-0.098,0.044-0.193,0.079-0.29,0.106
		c-0.085,0.024-0.172,0.038-0.26,0.042l-0.215-0.726c0.368-0.021,0.646-0.124,0.833-0.308c0.074-0.07,0.123-0.162,0.141-0.263
		c0.019-0.09-0.01-0.184-0.075-0.249c-0.092-0.092-0.227-0.093-0.406-0.002l-0.235,0.121c-0.141,0.072-0.268,0.125-0.383,0.16
		c-0.104,0.033-0.213,0.049-0.322,0.045c-0.099-0.004-0.194-0.028-0.282-0.072c-0.098-0.049-0.186-0.114-0.261-0.192
		c-0.088-0.088-0.162-0.188-0.219-0.299c-0.184-0.35-0.131-0.775,0.133-1.068l-0.377-0.38L14.491,14.742L14.491,14.742z"/>
	<path fill="#86C440" d="M9.991,16.867L14.578,7.5l6.689,3.263l-4.066,8.697L9.991,16.867z"/>
	<path fill="#86C440" d="M19.375,11.353c0-0.119,0.016-0.236,0.044-0.347l-3.7-1.805c-0.359,0.355-0.884,0.487-1.369,0.344
		l-3.437,7.019l6.03,2.169l2.947-6.303C19.564,12.167,19.375,11.771,19.375,11.353"/>
	<path fill="#3C813D" d="M11.132,16.476l5.73,2.061l2.835-6.066c-0.373-0.354-0.545-0.87-0.457-1.376l-3.494-1.705
		c-0.361,0.31-0.845,0.435-1.311,0.338L11.132,16.476L11.132,16.476z M17.025,18.929l-6.33-2.276l3.571-7.296l0.129,0.038
		c0.43,0.127,0.895,0.01,1.213-0.305l0.08-0.078l3.915,1.909l-0.032,0.124c-0.121,0.467,0.042,0.961,0.418,1.263l0.096,0.076
		L17.025,18.929z"/>
	<path fill="#86C440" d="M16.938,12.335c0,0.304-0.247,0.55-0.551,0.549c-0.304,0-0.549-0.247-0.549-0.55
		c0.002-0.304,0.248-0.55,0.552-0.55C16.693,11.785,16.939,12.032,16.938,12.335L16.938,12.335"/>
	<path fill="#3C813D" d="M16.39,11.943c-0.218,0-0.394,0.175-0.394,0.392l0,0c0,0.218,0.175,0.394,0.394,0.394
		c0.217,0,0.393-0.176,0.393-0.394C16.781,12.118,16.606,11.943,16.39,11.943L16.39,11.943 M16.39,13.041
		c-0.391,0-0.708-0.317-0.708-0.706c0-0.391,0.317-0.707,0.708-0.707c0.391,0.001,0.706,0.316,0.706,0.707
		S16.778,13.041,16.39,13.041 M16.876,16.047c-0.001,1.267-1.028,2.292-2.295,2.29l0,0c-1.266,0.002-2.293-1.023-2.295-2.289
		c0.002-1.267,1.029-2.291,2.295-2.29C15.847,13.757,16.874,14.781,16.876,16.047"/>
	<path fill="#FEFEFE" d="M12.722,14.829l0.482,0.231c0.168-0.272,0.361-0.476,0.581-0.611l0.432,0.569
		c-0.213,0.106-0.358,0.243-0.438,0.407c-0.046,0.086-0.063,0.184-0.05,0.28c0.016,0.086,0.053,0.143,0.111,0.171
		c0.053,0.025,0.116,0.024,0.188-0.003c0.073-0.027,0.143-0.075,0.212-0.143l0.193-0.196c0.217-0.22,0.42-0.355,0.607-0.409
		c0.188-0.053,0.387-0.029,0.597,0.072c0.128,0.061,0.233,0.13,0.316,0.206c0.085,0.077,0.149,0.166,0.195,0.27
		c0.045,0.104,0.07,0.223,0.076,0.358c0.007,0.136-0.003,0.292-0.029,0.469l0.493,0.237l-0.177,0.366l-0.474-0.229
		c-0.039,0.082-0.091,0.165-0.155,0.248c-0.066,0.083-0.137,0.162-0.213,0.235c-0.077,0.075-0.156,0.141-0.238,0.197
		c-0.081,0.058-0.158,0.1-0.23,0.127l-0.446-0.612c0.342-0.143,0.568-0.332,0.684-0.567c0.046-0.092,0.062-0.195,0.043-0.296
		c-0.013-0.091-0.07-0.169-0.153-0.208c-0.117-0.057-0.245-0.013-0.385,0.134l-0.181,0.191c-0.108,0.115-0.21,0.208-0.307,0.279
		c-0.087,0.065-0.185,0.116-0.289,0.149c-0.094,0.029-0.192,0.038-0.29,0.027s-0.202-0.043-0.311-0.096
		c-0.112-0.054-0.216-0.123-0.307-0.208c-0.088-0.082-0.16-0.18-0.212-0.288c-0.052-0.111-0.082-0.231-0.089-0.354
		c-0.009-0.128,0.014-0.265,0.067-0.408l-0.482-0.232L12.722,14.829z"/>
	<g transform="translate(0 14.985)">
		<defs>
			<filter id="Adobe_OpacityMaskFilter" filterUnits="userSpaceOnUse" x="6.093" y="1.589" width="17.438" height="13.926">
				<feColorMatrix  type="matrix" values="1 0 0 0 0  0 1 0 0 0  0 0 1 0 0  0 0 0 1 0"/>
			</filter>
		</defs>
		<mask maskUnits="userSpaceOnUse" x="6.093" y="1.589" width="17.438" height="13.926" id="b">
			<g filter="url(#Adobe_OpacityMaskFilter)">
				<path id="a" fill="#FFFFFF" d="M6.093,15.515H23.53V1.589H6.093V15.515z"/>
			</g>
		</mask>
		<path mask="url(#b)" fill="#31495F" d="M23.53,14.29c-0.001,0.677-0.55,1.226-1.227,1.225l0,0H7.319
			c-0.677,0.001-1.226-0.548-1.227-1.225l0,0V2.813c0-0.676,0.549-1.224,1.227-1.224h14.984c0.676-0.001,1.225,0.547,1.227,1.224
			V14.29L23.53,14.29z"/>
	</g>
	<path fill="#31495F" d="M22.104,27.835c-0.001,0.815-0.662,1.475-1.478,1.475H8.87c-0.815,0-1.477-0.659-1.479-1.475l0,0V19.45
		c0.001-0.815,0.662-1.476,1.478-1.476H8.87h11.757c0.815-0.001,1.478,0.659,1.479,1.475c0,0.001,0,0.001,0,0.001L22.104,27.835
		L22.104,27.835z"/>
	<path fill="#4E7592" d="M9.989,18.101H9.3c-0.069,0.005-0.129-0.048-0.134-0.116c-0.005-0.069,0.047-0.13,0.116-0.135
		c0.006,0,0.012,0,0.018,0h0.689c0.069-0.004,0.129,0.048,0.134,0.117s-0.047,0.129-0.116,0.134
		C10.001,18.101,9.995,18.101,9.989,18.101 M11.367,18.101h-0.689c-0.068,0.005-0.129-0.048-0.134-0.116
		c-0.005-0.069,0.048-0.13,0.116-0.135c0.006,0,0.012,0,0.018,0h0.689c0.069-0.004,0.129,0.048,0.134,0.117
		s-0.047,0.129-0.116,0.134C11.379,18.101,11.373,18.101,11.367,18.101 M12.745,18.101h-0.689c-0.068,0.005-0.129-0.048-0.134-0.116
		c-0.005-0.069,0.048-0.13,0.117-0.135c0.005,0,0.012,0,0.017,0h0.689c0.069-0.004,0.129,0.048,0.134,0.117
		s-0.047,0.129-0.116,0.134C12.757,18.101,12.751,18.101,12.745,18.101 M14.123,18.101h-0.688c-0.069,0.005-0.13-0.048-0.135-0.116
		c-0.005-0.069,0.048-0.13,0.117-0.135c0.006,0,0.012,0,0.018,0h0.688c0.069-0.004,0.129,0.048,0.134,0.117
		s-0.047,0.129-0.116,0.134C14.135,18.101,14.129,18.101,14.123,18.101 M15.501,18.101h-0.688c-0.069,0.005-0.13-0.048-0.135-0.116
		c-0.005-0.069,0.048-0.13,0.117-0.135c0.006,0,0.012,0,0.018,0h0.688c0.069-0.004,0.13,0.048,0.135,0.117s-0.048,0.129-0.117,0.134
		C15.513,18.101,15.507,18.101,15.501,18.101 M16.879,18.101H16.19c-0.069,0.005-0.13-0.048-0.135-0.116
		c-0.005-0.069,0.048-0.13,0.117-0.135c0.006,0,0.012,0,0.018,0h0.688c0.069-0.004,0.13,0.048,0.135,0.117
		c0.004,0.069-0.048,0.129-0.117,0.134C16.891,18.101,16.885,18.101,16.879,18.101 M18.257,18.101h-0.688
		c-0.069,0.005-0.13-0.048-0.135-0.116c-0.005-0.069,0.048-0.13,0.117-0.135c0.006,0,0.012,0,0.018,0h0.688
		c0.069-0.004,0.13,0.048,0.135,0.117c0.004,0.069-0.048,0.129-0.117,0.134C18.269,18.101,18.263,18.101,18.257,18.101
		 M19.635,18.101h-0.688c-0.069,0.005-0.129-0.048-0.134-0.116c-0.006-0.069,0.047-0.13,0.116-0.135c0.006,0,0.012,0,0.018,0h0.688
		c0.07-0.004,0.13,0.048,0.135,0.117c0.004,0.069-0.048,0.129-0.117,0.134C19.646,18.101,19.641,18.101,19.635,18.101 M21.009,18.15
		c-0.011,0-0.021-0.001-0.032-0.004c-0.114-0.03-0.231-0.046-0.35-0.046h-0.303c-0.069,0.005-0.13-0.048-0.134-0.116
		c-0.005-0.069,0.047-0.13,0.116-0.135c0.006,0,0.012,0,0.018,0h0.303c0.14,0,0.28,0.019,0.415,0.054
		c0.066,0.019,0.106,0.087,0.088,0.154C21.116,18.112,21.066,18.15,21.009,18.15 M7.986,18.394c-0.069,0-0.125-0.057-0.125-0.126
		c0-0.039,0.019-0.076,0.05-0.1c0.2-0.149,0.436-0.251,0.68-0.294c0.067-0.017,0.136,0.024,0.151,0.093
		c0.017,0.067-0.025,0.135-0.092,0.151c-0.006,0.001-0.011,0.002-0.017,0.003c-0.206,0.036-0.403,0.122-0.572,0.247
		C8.04,18.385,8.014,18.394,7.986,18.394 M22.001,19.031c-0.052,0-0.098-0.031-0.117-0.079c-0.078-0.195-0.2-0.37-0.358-0.51
		c-0.051-0.046-0.056-0.125-0.011-0.177c0,0,0.001,0,0.001-0.001c0.046-0.051,0.126-0.056,0.178-0.01
		c0.186,0.165,0.333,0.374,0.425,0.604c0.025,0.064-0.006,0.137-0.069,0.163C22.034,19.028,22.018,19.031,22.001,19.031
		 M7.392,19.577c-0.068,0.001-0.124-0.055-0.125-0.124l0,0V19.45c0-0.252,0.057-0.493,0.169-0.716
		c0.035-0.061,0.112-0.081,0.172-0.047c0.056,0.032,0.078,0.1,0.054,0.159c-0.095,0.187-0.144,0.394-0.144,0.604
		C7.518,19.52,7.462,19.576,7.392,19.577 M22.105,20.394c-0.069,0-0.126-0.056-0.126-0.126v-0.687c0-0.07,0.057-0.126,0.126-0.126
		s0.125,0.056,0.125,0.126v0.687C22.23,20.338,22.175,20.394,22.105,20.394 M7.392,20.953c-0.068,0-0.125-0.056-0.125-0.125v-0.688
		c0-0.07,0.056-0.126,0.125-0.126s0.126,0.056,0.126,0.126v0.688C7.518,20.897,7.461,20.953,7.392,20.953 M22.105,21.768
		c-0.069,0-0.126-0.056-0.126-0.125v-0.687c0-0.069,0.057-0.126,0.126-0.126s0.125,0.057,0.125,0.126v0.687
		C22.23,21.712,22.175,21.769,22.105,21.768 M7.392,22.329c-0.069,0-0.125-0.057-0.125-0.126v-0.688
		c0-0.069,0.056-0.125,0.125-0.125s0.126,0.056,0.126,0.125v0.688C7.518,22.272,7.461,22.329,7.392,22.329 M22.105,23.144
		c-0.069,0-0.126-0.057-0.126-0.126V22.33c0-0.069,0.057-0.125,0.126-0.125s0.125,0.056,0.125,0.125v0.688
		C22.23,23.087,22.175,23.144,22.105,23.144 M7.392,23.703c-0.068,0-0.125-0.056-0.125-0.125v-0.688
		c0-0.069,0.056-0.126,0.125-0.126s0.126,0.057,0.126,0.126v0.688C7.518,23.647,7.461,23.703,7.392,23.703 M22.105,24.518
		c-0.069,0-0.126-0.056-0.126-0.125v-0.688c0-0.069,0.057-0.126,0.126-0.126s0.125,0.057,0.125,0.126v0.688
		C22.23,24.462,22.175,24.518,22.105,24.518 M7.392,25.078c-0.069,0-0.125-0.056-0.125-0.126v-0.687
		c0-0.069,0.056-0.126,0.125-0.126s0.126,0.057,0.126,0.126v0.687C7.518,25.022,7.461,25.078,7.392,25.078 M22.105,25.894
		c-0.069,0-0.126-0.057-0.126-0.127V25.08c0-0.069,0.057-0.125,0.126-0.125s0.125,0.056,0.125,0.125v0.687
		C22.23,25.837,22.175,25.894,22.105,25.894 M7.392,26.453c-0.069,0-0.125-0.057-0.125-0.125v-0.688
		c0-0.069,0.056-0.126,0.125-0.126s0.126,0.057,0.126,0.126v0.688C7.518,26.396,7.461,26.453,7.392,26.453 M22.105,27.268
		c-0.069,0-0.125-0.056-0.126-0.125v-0.688c0-0.069,0.057-0.125,0.126-0.125s0.125,0.056,0.125,0.125v0.688
		C22.23,27.212,22.175,27.268,22.105,27.268 M7.392,27.828c-0.069,0-0.125-0.057-0.125-0.126l0,0v-0.688
		c0-0.069,0.056-0.126,0.125-0.126s0.126,0.057,0.126,0.126v0.688C7.518,27.771,7.461,27.827,7.392,27.828L7.392,27.828
		 M21.948,28.623c-0.069,0.001-0.126-0.055-0.126-0.124c0-0.02,0.005-0.039,0.013-0.058c0.096-0.189,0.145-0.394,0.145-0.605
		c0-0.07,0.056-0.128,0.126-0.129c0.069,0,0.125,0.053,0.125,0.121v0.007c0,0.253-0.057,0.495-0.17,0.72
		C22.039,28.597,21.995,28.623,21.948,28.623 M7.886,29.061c-0.031,0-0.061-0.012-0.084-0.031c-0.187-0.167-0.331-0.374-0.424-0.606
		c-0.025-0.064,0.007-0.137,0.071-0.163c0.064-0.025,0.137,0.007,0.162,0.071c0.078,0.193,0.201,0.37,0.358,0.511
		c0.052,0.045,0.057,0.124,0.011,0.177C7.957,29.046,7.922,29.061,7.886,29.061 M20.882,29.414c-0.069,0.002-0.128-0.052-0.13-0.121
		c-0.003-0.064,0.044-0.12,0.108-0.129c0.206-0.035,0.404-0.12,0.573-0.246c0.055-0.041,0.134-0.029,0.176,0.026
		c0.041,0.056,0.029,0.134-0.026,0.175c-0.199,0.149-0.435,0.25-0.681,0.293C20.896,29.413,20.889,29.413,20.882,29.414
		 M9.17,29.436h-0.3c-0.142,0-0.282-0.019-0.417-0.056c-0.068-0.013-0.112-0.079-0.099-0.147c0.014-0.067,0.08-0.112,0.148-0.099
		c0.005,0.002,0.011,0.004,0.016,0.005c0.114,0.03,0.232,0.046,0.352,0.046h0.3c0.069-0.005,0.129,0.048,0.135,0.117
		c0.005,0.069-0.048,0.129-0.117,0.134C9.182,29.437,9.176,29.437,9.17,29.436 M10.548,29.436H9.859
		C9.79,29.44,9.73,29.389,9.725,29.318c-0.004-0.068,0.048-0.129,0.117-0.134c0.006,0,0.012,0,0.018,0h0.688
		c0.069-0.005,0.13,0.048,0.135,0.117s-0.048,0.129-0.117,0.134C10.56,29.437,10.554,29.437,10.548,29.436 M11.926,29.436h-0.688
		c-0.069,0.005-0.129-0.047-0.134-0.117c-0.005-0.068,0.047-0.129,0.116-0.134c0.006,0,0.012,0,0.018,0h0.688
		c0.069-0.005,0.13,0.048,0.135,0.117s-0.048,0.129-0.117,0.134C11.938,29.437,11.932,29.437,11.926,29.436 M13.305,29.436h-0.689
		c-0.069,0.005-0.129-0.047-0.134-0.117c-0.005-0.068,0.047-0.129,0.116-0.134c0.006,0,0.012,0,0.018,0h0.689
		c0.068-0.005,0.129,0.048,0.134,0.117s-0.048,0.129-0.117,0.134C13.316,29.437,13.31,29.437,13.305,29.436 M14.683,29.436h-0.689
		c-0.069,0.005-0.129-0.047-0.134-0.117c-0.005-0.068,0.047-0.129,0.116-0.134c0.006,0,0.012,0,0.018,0h0.689
		c0.069-0.005,0.129,0.048,0.134,0.117s-0.048,0.129-0.116,0.134C14.694,29.437,14.688,29.437,14.683,29.436 M16.061,29.436h-0.689
		c-0.069,0.005-0.129-0.047-0.134-0.117c-0.005-0.068,0.047-0.129,0.116-0.134c0.006,0,0.012,0,0.018,0h0.689
		c0.069-0.005,0.129,0.048,0.134,0.117c0.004,0.069-0.048,0.129-0.117,0.134C16.072,29.437,16.065,29.437,16.061,29.436
		 M17.438,29.436h-0.689c-0.069,0.005-0.129-0.047-0.134-0.117c-0.005-0.068,0.047-0.129,0.116-0.134c0.006,0,0.012,0,0.018,0h0.689
		c0.069-0.005,0.129,0.048,0.134,0.117s-0.048,0.129-0.116,0.134C17.45,29.437,17.444,29.437,17.438,29.436 M18.816,29.436h-0.689
		c-0.069,0.005-0.129-0.047-0.134-0.117c-0.005-0.068,0.047-0.129,0.117-0.134c0.005,0,0.011,0,0.017,0h0.689
		c0.069-0.005,0.129,0.048,0.134,0.117s-0.047,0.129-0.116,0.134C18.828,29.437,18.822,29.437,18.816,29.436 M20.194,29.436h-0.689
		c-0.069,0.005-0.129-0.047-0.134-0.117c-0.005-0.068,0.048-0.129,0.117-0.134c0.006,0,0.011,0,0.017,0h0.689
		c0.069-0.005,0.129,0.048,0.134,0.117c0.006,0.069-0.047,0.129-0.116,0.134C20.206,29.437,20.2,29.437,20.194,29.436"/>
	<g transform="translate(18.87 23.935)">
		<defs>
			<filter id="Adobe_OpacityMaskFilter_1_" filterUnits="userSpaceOnUse" x="-1.251" y="-1.855" width="6.288" height="2.942">
				<feColorMatrix  type="matrix" values="1 0 0 0 0  0 1 0 0 0  0 0 1 0 0  0 0 0 1 0"/>
			</filter>
		</defs>
		<mask maskUnits="userSpaceOnUse" x="-1.251" y="-1.855" width="6.288" height="2.942" id="d">
			<g filter="url(#Adobe_OpacityMaskFilter_1_)">
				<path id="c" fill="#FFFFFF" d="M5.037,1.087v-2.942h-6.288v2.942H5.037z"/>
			</g>
		</mask>
		<path mask="url(#d)" fill="#2D3F54" d="M5.037-0.385C5.036,0.429,4.376,1.087,3.563,1.087H3.562H0.225
			C-0.59,1.088-1.249,0.429-1.251-0.384c0,0,0,0,0-0.001c0.002-0.813,0.662-1.472,1.476-1.47l0,0h3.337
			C4.375-1.857,5.036-1.199,5.037-0.385C5.037-0.384,5.037-0.384,5.037-0.385"/>
	</g>
	<path fill="#E6E6E7" d="M19.989,23.59c0,0.514-0.419,0.931-0.934,0.931s-0.933-0.417-0.933-0.931c0-0.515,0.418-0.931,0.933-0.931
		S19.989,23.075,19.989,23.59"/>
	<path fill="#D1D3D3" d="M19.768,23.59c0,0.393-0.319,0.711-0.712,0.711c-0.393,0.001-0.712-0.316-0.713-0.71V23.59
		c0-0.393,0.318-0.711,0.713-0.711C19.448,22.879,19.768,23.197,19.768,23.59"/>
</g>
</svg>
