<?xml version="1.0" encoding="utf-8"?>
<!-- Generator: Adobe Illustrator 17.0.0, SVG Export Plug-In . SVG Version: 6.00 Build 0)  -->
<!DOCTYPE svg PUBLIC "-//W3C//DTD SVG 1.1//EN" "http://www.w3.org/Graphics/SVG/1.1/DTD/svg11.dtd">
<svg version="1.1" id="Layer_1" xmlns="http://www.w3.org/2000/svg" xmlns:xlink="http://www.w3.org/1999/xlink" x="0px" y="0px"
	 width="24px" height="24px" viewBox="0 0 24 24" enable-background="new 0 0 24 24" xml:space="preserve">
<g>
	<path fill="#3C813D" d="M7.468,8.537l5.924,4.849l6.749-6.84l-5.21-5.307L7.468,8.537z"/>
	<path fill="#3C813D" d="M18.161,6.472c0.04-0.113,0.094-0.218,0.157-0.312l-2.883-2.936c-0.457,0.215-0.994,0.164-1.404-0.133
		L8.44,8.559l4.956,4.057l4.89-4.958C18.066,7.302,18.02,6.865,18.161,6.472"/>
	<path fill="#3A623F" d="M8.674,8.548l4.709,3.854l4.707-4.771c-0.234-0.458-0.223-1.002,0.03-1.45L15.397,3.41
		c-0.443,0.168-0.939,0.124-1.347-0.118L8.674,8.548z M13.406,12.827L8.205,8.568l5.812-5.683l0.107,0.078
		c0.362,0.263,0.84,0.308,1.246,0.118l0.101-0.047l3.051,3.105l-0.073,0.106c-0.271,0.398-0.282,0.919-0.028,1.329l0.063,0.104
		L13.406,12.827z"/>
	<path fill="#86C440" d="M15.535,6.584c-0.116,0.281-0.438,0.414-0.719,0.298C14.556,6.774,14.42,6.487,14.5,6.217
		c0.116-0.28,0.438-0.414,0.72-0.297C15.478,6.027,15.615,6.314,15.535,6.584"/>
	<path fill="#3C813D" d="M15.017,6.008c-0.217,0-0.394,0.177-0.393,0.394s0.176,0.393,0.393,0.392c0.218,0,0.393-0.176,0.393-0.393
		c0-0.166-0.104-0.314-0.262-0.37C15.106,6.015,15.061,6.009,15.017,6.008 M15.017,7.106c-0.392-0.001-0.708-0.319-0.706-0.71
		c0-0.079,0.013-0.157,0.039-0.231c0.132-0.368,0.535-0.56,0.903-0.43c0.367,0.131,0.559,0.534,0.428,0.901
		C15.582,6.919,15.315,7.106,15.017,7.106 M14.231,10.061c-0.425,1.192-1.736,1.815-2.93,1.392c-1.192-0.42-1.817-1.727-1.397-2.919
		C9.905,8.533,9.906,8.531,9.906,8.53c0.426-1.192,1.737-1.815,2.931-1.392c1.191,0.42,1.816,1.727,1.396,2.918
		C14.232,10.058,14.232,10.059,14.231,10.061"/>
	<path fill="#FEFEFE" d="M10.726,7.526l0.377,0.38c0.249-0.2,0.499-0.328,0.752-0.383l0.216,0.682
		c-0.236,0.029-0.419,0.109-0.549,0.237c-0.072,0.065-0.121,0.152-0.14,0.247c-0.015,0.086,0.001,0.152,0.046,0.198
		c0.043,0.042,0.102,0.062,0.179,0.061s0.159-0.023,0.247-0.064l0.249-0.12c0.277-0.135,0.514-0.195,0.708-0.183
		c0.195,0.012,0.375,0.102,0.539,0.267c0.1,0.101,0.176,0.201,0.229,0.301c0.054,0.101,0.084,0.206,0.093,0.319
		C13.679,9.58,13.662,9.7,13.623,9.83c-0.048,0.15-0.109,0.294-0.185,0.432l0.386,0.39l-0.29,0.285l-0.37-0.373
		c-0.07,0.068-0.147,0.129-0.23,0.181c-0.09,0.058-0.183,0.108-0.279,0.152c-0.098,0.044-0.193,0.079-0.29,0.106
		c-0.085,0.024-0.172,0.038-0.26,0.042l-0.215-0.726c0.368-0.021,0.646-0.124,0.833-0.308c0.074-0.07,0.123-0.162,0.141-0.263
		c0.019-0.09-0.01-0.184-0.075-0.249c-0.092-0.092-0.227-0.093-0.406-0.002l-0.235,0.121c-0.141,0.072-0.268,0.125-0.383,0.16
		c-0.104,0.033-0.213,0.049-0.322,0.045c-0.099-0.004-0.194-0.028-0.282-0.072c-0.098-0.049-0.186-0.114-0.261-0.192
		c-0.088-0.088-0.162-0.188-0.219-0.299c-0.184-0.35-0.131-0.775,0.133-1.068l-0.377-0.38L10.726,7.526L10.726,7.526z"/>
	<path fill="#86C440" d="M6.225,9.651l4.587-9.367l6.689,3.263l-4.066,8.697L6.225,9.651z"/>
	<path fill="#86C440" d="M15.609,4.137c0-0.119,0.016-0.236,0.044-0.347l-3.7-1.805c-0.359,0.355-0.884,0.487-1.369,0.344
		L7.147,9.348l6.03,2.169l2.947-6.303C15.798,4.951,15.609,4.555,15.609,4.137"/>
	<path fill="#3C813D" d="M7.366,9.26l5.73,2.061l2.835-6.066c-0.373-0.354-0.545-0.87-0.457-1.376L11.98,2.174
		c-0.361,0.31-0.845,0.435-1.311,0.338L7.366,9.26L7.366,9.26z M13.259,11.713l-6.33-2.276L10.5,2.141l0.129,0.038
		c0.43,0.127,0.895,0.01,1.213-0.305l0.08-0.078l3.915,1.909l-0.032,0.124c-0.121,0.467,0.042,0.961,0.418,1.263l0.096,0.076
		L13.259,11.713z"/>
	<path fill="#86C440" d="M13.172,5.119c0,0.304-0.247,0.55-0.551,0.549c-0.304,0-0.549-0.247-0.549-0.55
		c0.002-0.304,0.248-0.55,0.552-0.55C12.927,4.569,13.173,4.816,13.172,5.119L13.172,5.119"/>
	<path fill="#3C813D" d="M12.624,4.727c-0.218,0-0.394,0.175-0.394,0.392l0,0c0,0.218,0.175,0.394,0.394,0.394
		c0.217,0,0.393-0.176,0.393-0.394C13.015,4.902,12.84,4.727,12.624,4.727L12.624,4.727 M12.624,5.825
		c-0.391,0-0.708-0.317-0.708-0.706c0-0.391,0.317-0.707,0.708-0.707c0.391,0.001,0.706,0.316,0.706,0.707
		S13.012,5.825,12.624,5.825 M13.11,8.831c-0.001,1.267-1.028,2.292-2.295,2.29l0,0c-1.266,0.002-2.293-1.023-2.295-2.289
		c0.002-1.267,1.029-2.291,2.295-2.29C12.081,6.541,13.108,7.565,13.11,8.831"/>
	<path fill="#FEFEFE" d="M8.956,7.613l0.482,0.231c0.168-0.272,0.361-0.476,0.581-0.611l0.432,0.569
		c-0.213,0.106-0.358,0.243-0.438,0.407c-0.046,0.086-0.063,0.184-0.05,0.28c0.016,0.086,0.053,0.143,0.111,0.171
		c0.053,0.025,0.116,0.024,0.188-0.003c0.073-0.027,0.143-0.075,0.212-0.143l0.193-0.196c0.217-0.22,0.42-0.355,0.607-0.409
		c0.188-0.053,0.387-0.029,0.597,0.072c0.128,0.061,0.233,0.13,0.316,0.206c0.085,0.077,0.149,0.166,0.195,0.27
		c0.045,0.104,0.07,0.223,0.076,0.358c0.007,0.136-0.003,0.292-0.029,0.469l0.493,0.237l-0.177,0.366l-0.474-0.229
		c-0.039,0.082-0.091,0.165-0.155,0.248c-0.066,0.083-0.137,0.162-0.213,0.235c-0.077,0.075-0.156,0.141-0.238,0.197
		c-0.081,0.058-0.158,0.1-0.23,0.127L10.99,9.853c0.342-0.143,0.568-0.332,0.684-0.567c0.046-0.092,0.062-0.195,0.043-0.296
		c-0.013-0.091-0.07-0.169-0.153-0.208c-0.117-0.057-0.245-0.013-0.385,0.134l-0.181,0.191c-0.108,0.115-0.21,0.208-0.307,0.279
		c-0.087,0.065-0.185,0.116-0.289,0.149c-0.094,0.029-0.192,0.038-0.29,0.027S9.91,9.519,9.801,9.466
		C9.689,9.412,9.585,9.343,9.494,9.258c-0.088-0.082-0.16-0.18-0.212-0.288C9.23,8.859,9.2,8.739,9.193,8.616
		C9.184,8.488,9.207,8.351,9.26,8.208L8.778,7.976L8.956,7.613z"/>
	<g transform="translate(0 14.985)">
		<defs>
			<filter id="Adobe_OpacityMaskFilter" filterUnits="userSpaceOnUse" x="2.326" y="-5.627" width="17.438" height="13.926">
				<feColorMatrix  type="matrix" values="1 0 0 0 0  0 1 0 0 0  0 0 1 0 0  0 0 0 1 0"/>
			</filter>
		</defs>
		<mask maskUnits="userSpaceOnUse" x="2.326" y="-5.627" width="17.438" height="13.926" id="b">
			<g filter="url(#Adobe_OpacityMaskFilter)">
				<path id="a" fill="#FFFFFF" d="M2.327,8.299h17.437V-5.627H2.327V8.299z"/>
			</g>
		</mask>
		<path mask="url(#b)" fill="#31495F" d="M19.764,7.074c-0.001,0.677-0.55,1.226-1.227,1.225l0,0H3.553
			C2.876,8.3,2.327,7.751,2.326,7.074l0,0V-4.403c0-0.676,0.549-1.224,1.227-1.224h14.984c0.676-0.001,1.225,0.547,1.227,1.224
			V7.074L19.764,7.074z"/>
	</g>
	<path fill="#31495F" d="M18.338,20.619c-0.001,0.815-0.662,1.475-1.478,1.475H5.104c-0.815,0-1.477-0.659-1.479-1.475l0,0v-8.385
		c0.001-0.815,0.662-1.476,1.478-1.476h0.001h11.757c0.815-0.001,1.478,0.659,1.479,1.475c0,0.001,0,0.001,0,0.001L18.338,20.619
		L18.338,20.619z"/>
	<path fill="#4E7592" d="M6.223,10.885H5.534C5.465,10.89,5.405,10.837,5.4,10.769c-0.005-0.069,0.047-0.13,0.116-0.135
		c0.006,0,0.012,0,0.018,0h0.689c0.069-0.004,0.129,0.048,0.134,0.117S6.31,10.88,6.241,10.885
		C6.235,10.885,6.229,10.885,6.223,10.885 M7.601,10.885H6.912c-0.068,0.005-0.129-0.048-0.134-0.116
		c-0.005-0.069,0.048-0.13,0.116-0.135c0.006,0,0.012,0,0.018,0h0.689c0.069-0.004,0.129,0.048,0.134,0.117
		s-0.047,0.129-0.116,0.134C7.613,10.885,7.607,10.885,7.601,10.885 M8.979,10.885H8.29c-0.068,0.005-0.129-0.048-0.134-0.116
		c-0.005-0.069,0.048-0.13,0.117-0.135c0.005,0,0.012,0,0.017,0h0.689c0.069-0.004,0.129,0.048,0.134,0.117
		c0.005,0.069-0.047,0.129-0.116,0.134C8.991,10.885,8.986,10.885,8.979,10.885 M10.358,10.885H9.67
		c-0.069,0.005-0.13-0.048-0.135-0.116c-0.005-0.069,0.048-0.13,0.117-0.135c0.006,0,0.012,0,0.018,0h0.688
		c0.069-0.004,0.129,0.048,0.134,0.117c0.005,0.069-0.047,0.129-0.116,0.134C10.369,10.885,10.363,10.885,10.358,10.885
		 M11.736,10.885h-0.688c-0.069,0.005-0.13-0.048-0.135-0.116c-0.005-0.069,0.048-0.13,0.117-0.135c0.006,0,0.012,0,0.018,0h0.688
		c0.069-0.004,0.13,0.048,0.135,0.117c0.005,0.069-0.048,0.129-0.117,0.134C11.747,10.885,11.741,10.885,11.736,10.885
		 M13.113,10.885h-0.689c-0.069,0.005-0.13-0.048-0.135-0.116c-0.005-0.069,0.048-0.13,0.117-0.135c0.006,0,0.012,0,0.018,0h0.688
		c0.069-0.004,0.13,0.048,0.135,0.117c0.004,0.069-0.048,0.129-0.117,0.134C13.125,10.885,13.119,10.885,13.113,10.885
		 M14.491,10.885h-0.688c-0.069,0.005-0.13-0.048-0.135-0.116c-0.005-0.069,0.048-0.13,0.117-0.135c0.006,0,0.012,0,0.018,0h0.688
		c0.069-0.004,0.13,0.048,0.135,0.117c0.004,0.069-0.048,0.129-0.117,0.134C14.503,10.885,14.497,10.885,14.491,10.885
		 M15.869,10.885h-0.688c-0.069,0.005-0.129-0.048-0.134-0.116c-0.006-0.069,0.047-0.13,0.116-0.135c0.006,0,0.012,0,0.018,0h0.688
		c0.07-0.004,0.13,0.048,0.135,0.117c0.004,0.069-0.048,0.129-0.117,0.134C15.88,10.885,15.875,10.885,15.869,10.885 M17.243,10.934
		c-0.011,0-0.021-0.001-0.032-0.004c-0.114-0.03-0.231-0.046-0.35-0.046h-0.303c-0.069,0.005-0.13-0.048-0.134-0.116
		c-0.005-0.069,0.047-0.13,0.116-0.135c0.006,0,0.012,0,0.018,0h0.303c0.14,0,0.28,0.019,0.415,0.054
		c0.066,0.019,0.106,0.087,0.088,0.154C17.35,10.896,17.3,10.934,17.243,10.934 M4.22,11.178c-0.069,0-0.125-0.057-0.125-0.126
		c0-0.039,0.019-0.076,0.05-0.1c0.2-0.149,0.436-0.251,0.68-0.294c0.067-0.017,0.136,0.024,0.151,0.093
		c0.017,0.067-0.025,0.135-0.092,0.151c-0.006,0.001-0.011,0.002-0.017,0.003c-0.206,0.036-0.403,0.122-0.572,0.247
		C4.274,11.169,4.248,11.178,4.22,11.178 M18.235,11.815c-0.052,0-0.098-0.031-0.117-0.079c-0.078-0.195-0.2-0.37-0.358-0.51
		c-0.051-0.046-0.056-0.125-0.011-0.177c0,0,0.001,0,0.001-0.001c0.046-0.051,0.126-0.056,0.178-0.01
		c0.186,0.165,0.333,0.374,0.425,0.604c0.025,0.064-0.006,0.137-0.069,0.163C18.268,11.812,18.252,11.815,18.235,11.815
		 M3.626,12.361c-0.068,0.001-0.124-0.055-0.125-0.124l0,0v-0.003c0-0.252,0.057-0.493,0.169-0.716
		c0.035-0.061,0.112-0.081,0.172-0.047c0.056,0.032,0.078,0.1,0.054,0.159c-0.095,0.187-0.144,0.394-0.144,0.604
		C3.752,12.304,3.696,12.36,3.626,12.361 M18.339,13.178c-0.069,0-0.126-0.056-0.126-0.126v-0.687c0-0.07,0.057-0.126,0.126-0.126
		s0.125,0.056,0.125,0.126v0.687C18.464,13.122,18.409,13.178,18.339,13.178 M3.626,13.737c-0.068,0-0.125-0.056-0.125-0.125v-0.688
		c0-0.07,0.056-0.126,0.125-0.126s0.126,0.056,0.126,0.126v0.688C3.752,13.681,3.695,13.737,3.626,13.737 M18.339,14.552
		c-0.069,0-0.126-0.056-0.126-0.125V13.74c0-0.069,0.057-0.126,0.126-0.126s0.125,0.057,0.125,0.126v0.687
		C18.464,14.496,18.409,14.553,18.339,14.552 M3.626,15.113c-0.069,0-0.125-0.057-0.125-0.126v-0.688
		c0-0.069,0.056-0.125,0.125-0.125s0.126,0.056,0.126,0.125v0.688C3.752,15.056,3.695,15.113,3.626,15.113 M18.339,15.928
		c-0.069,0-0.126-0.057-0.126-0.126v-0.688c0-0.069,0.057-0.125,0.126-0.125s0.125,0.056,0.125,0.125v0.688
		C18.464,15.871,18.409,15.928,18.339,15.928 M3.626,16.487c-0.068,0-0.125-0.056-0.125-0.125v-0.688
		c0-0.069,0.056-0.126,0.125-0.126s0.126,0.057,0.126,0.126v0.688C3.752,16.431,3.695,16.487,3.626,16.487 M18.339,17.302
		c-0.069,0-0.126-0.056-0.126-0.125v-0.688c0-0.069,0.057-0.126,0.126-0.126s0.125,0.057,0.125,0.126v0.688
		C18.464,17.246,18.409,17.302,18.339,17.302 M3.626,17.862c-0.069,0-0.125-0.056-0.125-0.126v-0.687
		c0-0.069,0.056-0.126,0.125-0.126s0.126,0.057,0.126,0.126v0.687C3.752,17.806,3.695,17.862,3.626,17.862 M18.339,18.678
		c-0.069,0-0.126-0.057-0.126-0.127v-0.687c0-0.069,0.057-0.125,0.126-0.125s0.125,0.056,0.125,0.125v0.687
		C18.464,18.621,18.409,18.678,18.339,18.678 M3.626,19.237c-0.069,0-0.125-0.057-0.125-0.125v-0.688
		c0-0.069,0.056-0.126,0.125-0.126s0.126,0.057,0.126,0.126v0.688C3.752,19.18,3.695,19.237,3.626,19.237 M18.339,20.052
		c-0.069,0-0.125-0.056-0.126-0.125v-0.688c0-0.069,0.057-0.125,0.126-0.125s0.125,0.056,0.125,0.125v0.688
		C18.464,19.996,18.409,20.052,18.339,20.052 M3.626,20.612c-0.069,0-0.125-0.057-0.125-0.126l0,0v-0.688
		c0-0.069,0.056-0.126,0.125-0.126s0.126,0.057,0.126,0.126v0.688C3.752,20.555,3.695,20.611,3.626,20.612L3.626,20.612
		 M18.182,21.407c-0.069,0.001-0.126-0.055-0.126-0.124c0-0.02,0.005-0.039,0.013-0.058c0.096-0.189,0.145-0.394,0.145-0.605
		c0-0.07,0.056-0.128,0.126-0.129c0.069,0,0.125,0.053,0.125,0.121v0.007c0,0.253-0.057,0.495-0.17,0.72
		C18.273,21.381,18.229,21.407,18.182,21.407 M4.12,21.845c-0.031,0-0.061-0.012-0.084-0.031c-0.187-0.167-0.331-0.374-0.424-0.606
		c-0.025-0.064,0.007-0.137,0.071-0.163c0.064-0.025,0.137,0.007,0.162,0.071c0.078,0.193,0.201,0.37,0.358,0.511
		c0.052,0.045,0.057,0.124,0.011,0.177C4.191,21.83,4.156,21.845,4.12,21.845 M17.116,22.198c-0.069,0.002-0.128-0.052-0.13-0.121
		c-0.003-0.064,0.044-0.12,0.108-0.129c0.206-0.035,0.404-0.12,0.573-0.246c0.055-0.041,0.134-0.029,0.176,0.026
		c0.041,0.056,0.029,0.134-0.026,0.175c-0.199,0.149-0.435,0.25-0.681,0.293C17.13,22.197,17.123,22.197,17.116,22.198 M5.404,22.22
		h-0.3c-0.142,0-0.282-0.019-0.417-0.056c-0.068-0.013-0.112-0.079-0.099-0.147c0.014-0.067,0.08-0.112,0.148-0.099
		c0.005,0.002,0.011,0.004,0.016,0.005c0.114,0.03,0.232,0.046,0.352,0.046h0.3c0.069-0.005,0.129,0.048,0.135,0.117
		c0.005,0.069-0.048,0.129-0.117,0.134C5.416,22.221,5.41,22.221,5.404,22.22 M6.782,22.22H6.093
		c-0.069,0.004-0.129-0.047-0.134-0.118c-0.004-0.068,0.048-0.129,0.117-0.134c0.006,0,0.012,0,0.018,0h0.688
		c0.069-0.005,0.13,0.048,0.135,0.117S6.869,22.214,6.8,22.219C6.794,22.221,6.788,22.221,6.782,22.22 M8.16,22.22H7.472
		c-0.069,0.005-0.129-0.047-0.134-0.117c-0.005-0.068,0.047-0.129,0.116-0.134c0.006,0,0.012,0,0.018,0H8.16
		c0.069-0.005,0.13,0.048,0.135,0.117c0.005,0.069-0.048,0.129-0.117,0.134C8.172,22.221,8.167,22.221,8.16,22.22 M9.539,22.22
		H8.851c-0.069,0.005-0.129-0.047-0.134-0.117c-0.005-0.068,0.047-0.129,0.116-0.134c0.006,0,0.012,0,0.018,0h0.689
		c0.068-0.005,0.129,0.048,0.134,0.117c0.005,0.069-0.048,0.129-0.117,0.134C9.55,22.221,9.545,22.221,9.539,22.22 M10.917,22.22
		h-0.689c-0.069,0.005-0.129-0.047-0.134-0.117c-0.005-0.068,0.047-0.129,0.116-0.134c0.006,0,0.012,0,0.018,0h0.689
		c0.069-0.005,0.129,0.048,0.134,0.117c0.005,0.069-0.048,0.129-0.116,0.134C10.928,22.221,10.922,22.221,10.917,22.22
		 M12.295,22.22h-0.689c-0.069,0.005-0.129-0.047-0.134-0.117c-0.005-0.068,0.047-0.129,0.116-0.134c0.006,0,0.012,0,0.018,0h0.689
		c0.069-0.005,0.129,0.048,0.134,0.117c0.004,0.069-0.048,0.129-0.117,0.134C12.306,22.221,12.299,22.221,12.295,22.22
		 M13.672,22.22h-0.689c-0.069,0.005-0.129-0.047-0.134-0.117c-0.005-0.068,0.047-0.129,0.116-0.134c0.006,0,0.012,0,0.018,0h0.689
		c0.069-0.005,0.129,0.048,0.134,0.117s-0.048,0.129-0.116,0.134C13.684,22.221,13.678,22.221,13.672,22.22 M15.05,22.22h-0.689
		c-0.069,0.005-0.129-0.047-0.134-0.117c-0.005-0.068,0.047-0.129,0.117-0.134c0.005,0,0.011,0,0.017,0h0.689
		c0.069-0.005,0.129,0.048,0.134,0.117s-0.047,0.129-0.116,0.134C15.062,22.221,15.056,22.221,15.05,22.22 M16.428,22.22H15.74
		c-0.069,0.005-0.129-0.047-0.134-0.117c-0.005-0.068,0.048-0.129,0.117-0.134c0.006,0,0.011,0,0.017,0h0.689
		c0.069-0.005,0.129,0.048,0.134,0.117c0.006,0.069-0.047,0.129-0.116,0.134C16.44,22.221,16.434,22.221,16.428,22.22"/>
	<g transform="translate(18.87 23.935)">
		<defs>
			<filter id="Adobe_OpacityMaskFilter_1_" filterUnits="userSpaceOnUse" x="-5.017" y="-9.071" width="6.288" height="2.942">
				<feColorMatrix  type="matrix" values="1 0 0 0 0  0 1 0 0 0  0 0 1 0 0  0 0 0 1 0"/>
			</filter>
		</defs>
		<mask maskUnits="userSpaceOnUse" x="-5.017" y="-9.071" width="6.288" height="2.942" id="d">
			<g filter="url(#Adobe_OpacityMaskFilter_1_)">
				<path id="c" fill="#FFFFFF" d="M1.271-6.129v-2.942h-6.288v2.942H1.271z"/>
			</g>
		</mask>
		<path mask="url(#d)" fill="#2D3F54" d="M1.271-7.601C1.27-6.787,0.61-6.129-0.203-6.129h-0.001h-3.337
			C-4.356-6.128-5.015-6.787-5.017-7.6c0,0,0,0,0-0.001c0.002-0.813,0.662-1.472,1.476-1.47l0,0h3.337
			C0.609-9.073,1.27-8.415,1.271-7.601C1.271-7.6,1.271-7.6,1.271-7.601"/>
	</g>
	<path fill="#E6E6E7" d="M16.223,16.374c0,0.514-0.419,0.931-0.934,0.931s-0.933-0.417-0.933-0.931c0-0.515,0.418-0.931,0.933-0.931
		S16.223,15.859,16.223,16.374"/>
	<path fill="#D1D3D3" d="M16.002,16.374c0,0.393-0.319,0.711-0.712,0.711c-0.393,0.001-0.712-0.316-0.713-0.71v-0.001
		c0-0.393,0.318-0.711,0.713-0.711C15.682,15.663,16.002,15.981,16.002,16.374"/>
</g>
</svg>
