<?xml version="1.0" encoding="utf-8"?>
<!-- Generator: Adobe Illustrator 16.0.0, SVG Export Plug-In . SVG Version: 6.00 Build 0)  -->
<!DOCTYPE svg PUBLIC "-//W3C//DTD SVG 1.1//EN" "http://www.w3.org/Graphics/SVG/1.1/DTD/svg11.dtd">
<svg version="1.1" id="Layer_1" xmlns="http://www.w3.org/2000/svg" xmlns:xlink="http://www.w3.org/1999/xlink" x="0px" y="0px"
	 width="24px" height="24px" viewBox="-3 5.5 24 24" enable-background="new -3 5.5 24 24" xml:space="preserve">
<title>A7F07269-BD11-480A-B352-A7A3C3E0ECEA</title>
<g transform="translate(.323)">
	<defs>
		<filter id="Adobe_OpacityMaskFilter" filterUnits="userSpaceOnUse" x="2.806" y="6" width="11.742" height="23">
			<feColorMatrix  type="matrix" values="1 0 0 0 0  0 1 0 0 0  0 0 1 0 0  0 0 0 1 0"/>
		</filter>
	</defs>
	<mask maskUnits="userSpaceOnUse" x="2.806" y="6" width="11.742" height="23" id="b">
		<g filter="url(#Adobe_OpacityMaskFilter)">
			<path id="a" fill="#FFFFFF" d="M14.548,29H2.806V6h11.742V29z"/>
		</g>
	</mask>
	<path mask="url(#b)" fill="#0A9A50" d="M11.766,16.534c-0.844-0.451-1.757-0.769-2.62-1.185c-0.604-0.29-1.227-0.579-1.749-0.986
		c-0.954-0.747-0.746-2.1,0.369-2.579c0.344-0.148,0.737-0.225,1.113-0.25c1.318-0.088,2.559,0.222,3.728,0.831
		c0.307,0.16,0.47,0.109,0.565-0.243c0.192-0.719,0.403-1.433,0.625-2.144c0.092-0.296,0.015-0.473-0.272-0.578
		c-0.398-0.146-0.783-0.344-1.191-0.447c-0.726-0.185-1.466-0.314-2.246-0.477c0-0.658-0.009-1.347,0.005-2.034
		C10.098,6.123,9.979,5.994,9.657,6C9.04,6.014,8.422,6.015,7.804,6c-0.327-0.008-0.43,0.132-0.421,0.448
		C7.401,7.07,7.376,7.692,7.394,8.313C7.403,8.605,7.333,8.738,7.022,8.82c-0.5,0.134-0.994,0.32-1.456,0.554
		C2.488,10.93,1.916,15.333,5.064,17.4c0.377,0.248,0.764,0.494,1.173,0.68c0.837,0.378,1.703,0.69,2.535,1.079
		c0.467,0.219,0.937,0.479,1.322,0.818c0.991,0.871,0.81,2.292-0.358,2.894c-0.366,0.186-0.764,0.303-1.171,0.347
		c-1.607,0.167-3.097-0.253-4.502-1.02c-0.401-0.219-0.472-0.192-0.598,0.251c-0.207,0.729-0.393,1.464-0.619,2.188
		c-0.087,0.281-0.037,0.459,0.225,0.564c0.634,0.256,1.257,0.556,1.912,0.738c0.72,0.2,1.469,0.286,2.244,0.43
		c0,0.727,0.01,1.472-0.005,2.215c-0.006,0.31,0.118,0.42,0.412,0.414C8.264,28.988,8.896,28.988,9.527,29
		c0.32,0.007,0.435-0.127,0.429-0.446C9.94,27.753,9.95,26.952,9.95,26.14c0.32-0.094,0.624-0.172,0.922-0.269
		c2.733-0.894,4.153-3.354,3.531-6.123C14.064,18.231,13.072,17.23,11.766,16.534"/>
</g>
</svg>
