<svg width="30" height="29" viewBox="0 0 30 29" xmlns="http://www.w3.org/2000/svg" xmlns:xlink="http://www.w3.org/1999/xlink"><title>AC55753B-A723-4B33-981C-DA34DEFEB5A2</title><defs><path id="a" d="M.005 15.048h22.957V0H.005z"/><path id="c" d="M0 28.906h29.61V0H0z"/></defs><g fill="none" fill-rule="evenodd"><path d="M25.106 8.96a1.49 1.49 0 0 1 .005 2.091L10.98 25.398a1.453 1.453 0 0 1-2.07.006l-8.48-8.53a1.49 1.49 0 0 1-.005-2.091L14.556.436a1.453 1.453 0 0 1 2.07-.005l8.48 8.529z" fill="#394F64"/><path fill="#EFF2F2" d="M20.241 4.067L4.023 20.457 1.16 17.562 17.37 1.18z"/><path d="M19.727 12.22a1.804 1.804 0 0 1-1.795 1.814 1.804 1.804 0 0 1-1.795-1.813c0-1.002.803-1.814 1.795-1.814.991 0 1.795.812 1.795 1.814" fill="#D85135"/><path d="M21.854 10.07a1.804 1.804 0 0 1-1.795 1.815 1.804 1.804 0 0 1-1.795-1.814c0-1.002.804-1.814 1.795-1.814.991 0 1.795.812 1.795 1.814" fill="#ED9121"/><g transform="translate(6.648 13.858)"><mask id="b" fill="#fff"><use xlink:href="#a"/></mask><path d="M22.962 13.57c0 .816-.655 1.479-1.463 1.479H1.468a1.471 1.471 0 0 1-1.463-1.48V1.48C.005.662.66 0 1.468 0h20.03c.809 0 1.464.662 1.464 1.479v12.09z" fill="#2289C7" mask="url(#b)"/></g><mask id="d" fill="#fff"><use xlink:href="#c"/></mask><path fill="#ED9121" mask="url(#d)" d="M8.603 20.934h4.387V16.5H8.603z"/><path fill="#EFF2F2" mask="url(#d)" d="M8.78 23.397h10.725V22.01H8.78zM8.78 26.308h11.567V24.92H8.78zM22.696 26.308h5.784V24.92h-5.784z"/></g></svg>