<svg width="26" height="32" viewBox="0 0 26 32" xmlns="http://www.w3.org/2000/svg" xmlns:xlink="http://www.w3.org/1999/xlink"><title>D088759C-512E-4B37-A57D-9937BB0AE537</title><defs><path id="a" d="M23.126.004H0v27.77h23.126V.005z"/><path id="c" d="M.038 23.245h19.317V.011H.038v23.234z"/></defs><g fill="none" fill-rule="evenodd"><g transform="translate(0 .049)"><mask id="b" fill="#fff"><use xlink:href="#a"/></mask><path d="M6.476 27.766c-1.9.006-3.805.013-5.705.006-.513 0-.843-.468-.758-1.012.318-2.095.617-4.19.935-6.279.287-1.88.599-3.76.886-5.646.207-1.36.39-2.721.598-4.082.306-2.006.624-4.013.935-6.02.177-1.151.342-2.303.513-3.455C3.99.525 4.564.012 5.31.012c3.213 0 6.432-.025 9.645.013 1.753.019 3.494.247 5.088 1.089 1.656.86 2.664 2.26 2.994 4.158.152.886.097 1.772-.068 2.658a7.987 7.987 0 0 0-2.15-.747c-.928-.19-1.881-.24-2.828-.253a387.277 387.277 0 0 0-7.171 0c-.507.007-.96.222-1.161.76-.092.247-.122.525-.159.797-.165 1.038-.324 2.082-.483 3.127-.122.804-.256 1.607-.372 2.411-.147 1.02-.275 2.045-.464 3.057-.061.336-.196.677-.098 1.038-.073.228-.14.456-.177.696-.171 1.171-.348 2.342-.526 3.513-.213 1.418-.415 2.842-.647 4.26-.073.392-.049.81-.257 1.177" fill="#012D8A" mask="url(#b)"/></g><g transform="translate(6.133 8.044)"><mask id="d" fill="#fff"><use xlink:href="#c"/></mask><path d="M.344 19.77c.207-.36.183-.784.244-1.177.232-1.418.434-2.835.648-4.26.177-1.17.354-2.341.525-3.512.037-.24.104-.468.177-.696.33-.532.788-.766 1.411-.76 1.558 0 3.116.083 4.667-.12 1.387-.177 2.712-.544 3.946-1.228 1.9-1.057 3.195-2.67 4.007-4.715.385-.975.69-1.981.819-3.032.012-.025.018-.05.03-.07l.037-.19c1.454.798 2.23 2.077 2.438 3.748.17 1.373-.031 2.708-.36 4.038a10.069 10.069 0 0 1-1.24 2.962 7.485 7.485 0 0 1-3.855 3.126c-.843.31-1.71.488-2.597.595-.739.089-1.478.089-2.217.095-.745 0-1.222.424-1.325 1.184a186.14 186.14 0 0 1-.721 4.804c-.092.544-.165 1.095-.257 1.633-.116.658-.568 1.05-1.21 1.05H.84c-.593 0-.88-.354-.782-.95L.405 20.1c.018-.12.049-.241-.061-.33" fill="#019AE0" mask="url(#d)"/></g><path d="M22.994 8.042l-.037.19c-.012.026-.018.05-.03.07-.129 1.05-.434 2.057-.819 3.032-.812 2.044-2.107 3.658-4.007 4.715-1.234.683-2.566 1.05-3.946 1.228-1.552.196-3.11.12-4.667.12-.623 0-1.081.228-1.411.76-.098-.355.036-.703.097-1.039.184-1.012.318-2.038.465-3.057.116-.803.25-1.607.372-2.411.16-1.044.318-2.082.483-3.127.043-.265.067-.544.159-.797.201-.538.653-.76 1.16-.76 2.389-.019 4.783-.025 7.172 0 .947.013 1.893.064 2.828.254a7.914 7.914 0 0 1 2.15.746c.013.038.025.057.03.076" fill="#001F6B"/><path d="M22.933 8.462c.051-.081.077-.162.129-.223-.052.06-.078.142-.13.223" fill="#012D8A"/></g></svg>