<svg xmlns="http://www.w3.org/2000/svg" width="25" height="25" viewBox="0 0 25 25">
    <g fill="#8F999F" fill-rule="evenodd">
        <path d="M23.412 13.687L21.609 14c-.472.083-.944.163-1.414.257-.062.012-.146.088-.16.149a8.459 8.459 0 0 1-1.013 2.446c-.077.125-.04.204.033.304.577.801 1.151 1.605 1.726 2.408.041.057.08.116.112.162l-1.466 1.455-1.278-.888c-.44-.307-.884-.61-1.318-.925-.12-.087-.202-.08-.321-.004a7.368 7.368 0 0 1-2.298.975c-.214.05-.285.148-.318.347-.164.987-.34 1.98-.513 2.965-.004.021-.012-.002-.021.083h-2.077c-.074-.424-.15-.885-.223-1.327-.102-.62-.208-1.244-.298-1.867-.022-.156-.127-.154-.224-.177-.77-.182-1.516-.44-2.18-.872-.294-.192-.477-.153-.739.039-.778.57-1.578 1.112-2.354 1.654l-1.486-1.441c.058-.085.108-.16.16-.233.556-.781 1.11-1.564 1.673-2.34.084-.117.092-.203.017-.325a8.295 8.295 0 0 1-1.026-2.44c-.015-.064-.114-.142-.185-.155-.942-.175-1.885-.34-2.828-.508-.098-.017-.194-.038-.306-.06 0-.66-.003-1.31.006-1.961 0-.044.093-.116.15-.126.945-.163 1.889-.325 2.835-.47.236-.037.341-.126.398-.368.189-.813.516-1.574.96-2.283.033-.054.062-.11.098-.174a33113.4 33113.4 0 0 0-1.892-2.693l1.455-1.444 1.714 1.214c.24.17.484.332.716.511.183.141.359.157.555.04a7.691 7.691 0 0 1 2.343-.924c.159-.034.15-.15.167-.255.162-.98.32-1.961.486-2.94.01-.061.092-.156.142-.156.644-.01 1.287-.007 1.95-.007l.314 1.801c.078.45.159.901.228 1.353.02.136.085.188.213.216a7.149 7.149 0 0 1 2.16.862c.279.168.51.17.783-.035.767-.575 1.552-1.125 2.328-1.685.48.499.956.99 1.45 1.503-.104.138-.251.32-.386.511-.473.673-.94 1.35-1.415 2.023-.07.1-.088.174-.02.286.447.73.785 1.51.975 2.346.048.212.17.263.353.292.96.152 1.92.313 2.88.468.094.016.184.013.183.151-.003.644-.001 1.287-.001 1.949m.08-3.037c-.84-.136-1.673-.272-2.513-.407-.099-.016-.168-.037-.215-.157-.204-.518-.427-1.027-.635-1.543-.026-.064-.022-.17.016-.225a218.6 218.6 0 0 1 1.583-2.271c.134-.19.285-.367.407-.523l-2.629-2.63c-.071.05-.16.11-.247.172-.836.601-1.673 1.202-2.506 1.808-.104.076-.178.085-.303.03a28.829 28.829 0 0 0-1.466-.601c-.128-.049-.197-.098-.22-.238-.099-.607-.207-1.227-.314-1.832-.09-.52-.184-1.057-.275-1.566h-3.708c-.177 1.102-.356 2.203-.523 3.29-.029.19-.093.293-.287.36-.472.161-.934.358-1.39.56-.14.061-.228.053-.346-.033-.632-.458-1.27-.906-1.905-1.358l-.813-.577-2.627 2.628.107.15c.604.852 1.209 1.702 1.806 2.558.047.066.074.188.046.26a47.798 47.798 0 0 1-.637 1.566.275.275 0 0 1-.17.145c-.512.095-1.028.177-1.543.263-.618.104-1.258.208-1.852.31v3.695c0 .011.056.02.077.024 1.07.19 2.14.381 3.21.566.163.029.245.094.307.262.173.475.374.941.582 1.403.06.133.072.22-.02.345-.628.87-1.247 1.747-1.869 2.622-.035.05-.066.103-.078.122l2.618 2.619.139-.096c.876-.62 1.752-1.24 2.632-1.855.057-.04.16-.069.22-.045.54.208 1.075.426 1.607.65a.26.26 0 0 1 .137.155c.055.259.091.512.135.772.146.88.293 1.79.44 2.639h3.7c.039-.17.076-.382.109-.572.162-.922.325-1.839.483-2.762.022-.132.077-.196.21-.248.492-.194.976-.403 1.457-.622.12-.055.197-.06.305.019.548.39 1.1.773 1.652 1.159l1.161.812 2.62-2.618c-.04-.059-.09-.136-.144-.21-.615-.854-1.228-1.708-1.848-2.558-.081-.111-.091-.19-.031-.324.213-.475.41-.957.595-1.444.05-.133.11-.194.246-.216.53-.086 1.042-.179 1.57-.271.597-.104 1.185-.211 1.778-.317v-3.707c-.254-.048-.56-.093-.842-.138"/>
        <path d="M12.344 16.027a3.34 3.34 0 0 1-3.357-3.368 3.34 3.34 0 0 1 3.374-3.352 3.34 3.34 0 0 1 3.347 3.358 3.34 3.34 0 0 1-3.364 3.362m.027-7.695c-2.382-.01-4.347 1.931-4.358 4.306-.012 2.392 1.936 4.359 4.322 4.364 2.38.005 4.34-1.94 4.347-4.317.007-2.381-1.936-4.343-4.311-4.353"/>
    </g>
</svg>
