<?xml version="1.0" encoding="utf-8"?>
<!-- Generator: Adobe Illustrator 16.0.0, SVG Export Plug-In . SVG Version: 6.00 Build 0)  -->
<!DOCTYPE svg PUBLIC "-//W3C//DTD SVG 1.1//EN" "http://www.w3.org/Graphics/SVG/1.1/DTD/svg11.dtd">
<svg version="1.1" id="Layer_1" xmlns="http://www.w3.org/2000/svg" xmlns:xlink="http://www.w3.org/1999/xlink" x="0px" y="0px"
	 width="24px" height="24px" viewBox="-1.5 -1.5 24 24" enable-background="new -1.5 -1.5 24 24" xml:space="preserve">
<title>5F1646B4-CB0B-4418-9AA6-775937EA4A9D</title>
<path fill="#21457E" d="M8.616,14.796c3.403,0.008,6.183-2.753,6.189-6.149c0.011-3.404-2.752-6.188-6.145-6.193
	C5.25,2.447,2.479,5.206,2.47,8.619c0,0.002,0,0.003,0,0.005C2.465,12.011,5.23,14.788,8.616,14.796z M7.001,16.591
	c-2.058-0.413-3.71-1.502-4.946-3.196c-2.443-3.353-1.962-7.941,1.117-10.792c2.936-2.72,7.623-2.802,10.67-0.237
	c3.242,2.729,3.99,7.64,1.211,11.275c0.055,0.059,0.111,0.12,0.171,0.179c1.631,1.635,3.263,3.27,4.898,4.899
	c0.229,0.228,0.391,0.48,0.376,0.82c-0.016,0.389-0.192,0.681-0.539,0.85c-0.321,0.173-0.714,0.143-1.005-0.078
	c-0.121-0.087-0.228-0.2-0.335-0.309l-4.819-4.822c-0.044-0.046-0.093-0.089-0.148-0.141C11.658,16.532,9.44,17.079,7.001,16.591z"
	/>
</svg>
