<?xml version="1.0" encoding="utf-8"?>
<!-- Generator: Adobe Illustrator 16.0.0, SVG Export Plug-In . SVG Version: 6.00 Build 0)  -->
<!DOCTYPE svg PUBLIC "-//W3C//DTD SVG 1.1//EN" "http://www.w3.org/Graphics/SVG/1.1/DTD/svg11.dtd">
<svg version="1.1" id="Layer_1" xmlns="http://www.w3.org/2000/svg" xmlns:xlink="http://www.w3.org/1999/xlink" x="0px" y="0px"
	 width="24px" height="24px" viewBox="0 0 24 24" enable-background="new 0 0 24 24" xml:space="preserve">
<g id="Page-1">
	<g id="Product-1280x800" transform="translate(-21.000000, -142.000000)">
		<g id="Trash-" transform="translate(21.000000, 142.000000)">
			<path id="Fill-1" fill="#FFFFFF" d="M2.732,3.833h18.535H2.732z"/>
			<rect x="2.732" y="3.083" fill="#273746" width="18.535" height="1.5"/>
			<path fill="#273746" d="M15.701,4.583H8.3V2.688C8.3,1.206,9.47,0,10.909,0h2.181c1.439,0,2.611,1.206,2.611,2.688V4.583z
				 M9.8,3.083h4.401V2.688c0-0.655-0.499-1.188-1.111-1.188h-2.181C10.297,1.5,9.8,2.032,9.8,2.688V3.083z"/>
			<path fill="#273746" d="M16.229,24H7.775c-1.439,0-2.61-1.206-2.61-2.688L3.617,3.133h16.768l-1.55,18.243
				C18.838,22.794,17.667,24,16.229,24z M5.25,4.633l1.412,16.616C6.665,21.968,7.163,22.5,7.775,22.5h8.453
				c0.611,0,1.109-0.532,1.109-1.188l1.414-16.679H5.25z"/>
			<path id="Fill-8" fill="#FFFFFF" d="M14.902,7.597V19.48"/>
			<rect x="14.152" y="7.597" fill="#273746" width="1.5" height="11.884"/>
			<path id="Fill-12" fill="#FFFFFF" d="M12.05,7.597V19.48"/>
			<rect x="11.3" y="7.597" fill="#273746" width="1.5" height="11.884"/>
			<path id="Fill-16" fill="#FFFFFF" d="M9.201,7.597V19.48"/>
			<rect x="8.451" y="7.597" fill="#273746" width="1.5" height="11.884"/>
		</g>
	</g>
</g>
</svg>
